<?xml version="1.0" standalone="no"?>
<!DOCTYPE svg PUBLIC "-//W3C//DTD SVG 20010904//EN"
 "http://www.w3.org/TR/2001/REC-SVG-20010904/DTD/svg10.dtd">
<svg version="1.0" xmlns="http://www.w3.org/2000/svg"
 width="572.000000pt" height="572.000000pt" viewBox="0 0 572.000000 572.000000"
 preserveAspectRatio="xMidYMid meet">
<metadata>
Created by potrace 1.14, written by Peter Selinger 2001-2017
</metadata>
<g transform="translate(0.000000,572.000000) scale(0.100000,-0.100000)"
fill="#000000" stroke="none">
<path d="M326 5704 c-125 -39 -221 -133 -265 -260 -20 -59 -20 -71 -21 -2580
0 -2735 -3 -2564 52 -2662 37 -65 129 -144 199 -172 l64 -25 2511 0 2510 0 76
37 c91 45 147 103 191 196 l32 67 3 2536 c2 2811 8 2585 -63 2694 -55 84 -130
141 -225 169 -48 14 -301 16 -2534 15 -2172 0 -2487 -2 -2530 -15z"/>
</g>
</svg>
