<svg width="25" height="25" viewBox="0 0 25 25" fill="none" xmlns="http://www.w3.org/2000/svg">
<path d="M17.2813 7.89575L10.4167 14.7603L6.67712 11.0312L5.20837 12.4999L10.4167 17.7083L18.75 9.37492L17.2813 7.89575ZM12.5 2.08325C6.75004 2.08325 2.08337 6.74992 2.08337 12.4999C2.08337 18.2499 6.75004 22.9166 12.5 22.9166C18.25 22.9166 22.9167 18.2499 22.9167 12.4999C22.9167 6.74992 18.25 2.08325 12.5 2.08325ZM12.5 20.8333C7.89587 20.8333 4.16671 17.1041 4.16671 12.4999C4.16671 7.89575 7.89587 4.16659 12.5 4.16659C17.1042 4.16659 20.8334 7.89575 20.8334 12.4999C20.8334 17.1041 17.1042 20.8333 12.5 20.8333Z" fill="white" fill-opacity="0.69"/>
</svg>
