<svg width="33" height="32" viewBox="0 0 33 32" fill="none" xmlns="http://www.w3.org/2000/svg">
<path d="M24.0175 9.00163L13.5834 19.4358L7.89919 13.7675L5.66669 16L13.5834 23.9166L26.25 11.25L24.0175 9.00163ZM16.75 0.166626C8.01002 0.166626 0.916687 7.25996 0.916687 16C0.916687 24.74 8.01002 31.8333 16.75 31.8333C25.49 31.8333 32.5834 24.74 32.5834 16C32.5834 7.25996 25.49 0.166626 16.75 0.166626ZM16.75 28.6666C9.75169 28.6666 4.08335 22.9983 4.08335 16C4.08335 9.00163 9.75169 3.33329 16.75 3.33329C23.7484 3.33329 29.4167 9.00163 29.4167 16C29.4167 22.9983 23.7484 28.6666 16.75 28.6666Z" fill="white" fill-opacity="0.85"/>
</svg>
