<svg width="28" height="28" viewBox="0 0 28 28" fill="none" xmlns="http://www.w3.org/2000/svg">
<path d="M14 0.666748C6.63602 0.666748 0.666687 6.63608 0.666687 14.0001C0.666687 21.3641 6.63602 27.3334 14 27.3334C21.364 27.3334 27.3334 21.3641 27.3334 14.0001C27.3334 6.63608 21.364 0.666748 14 0.666748ZM14 3.33341C19.8907 3.33341 24.6667 8.10941 24.6667 14.0001C24.6667 19.2459 20.8749 23.5976 15.8854 24.4897V18.047H19.0391L19.5078 14.4141H15.9063V12.099C15.9063 11.0484 16.1991 10.3386 17.7057 10.3386H19.6094V7.09644C18.6827 7.00177 17.7523 6.95575 16.8203 6.95842C14.055 6.95842 12.1615 8.64621 12.1615 11.7449V14.4194H9.03648V18.0522H12.1615V24.4975C7.14895 23.6244 3.33335 19.2623 3.33335 14.0001C3.33335 8.10941 8.10935 3.33341 14 3.33341Z" fill="white" fill-opacity="0.69"/>
</svg>
