<svg width="30" height="30" viewBox="0 0 30 30" fill="none" xmlns="http://www.w3.org/2000/svg">
<path d="M10 21.25H12.5V20H13.75C14.4375 20 15 19.4375 15 18.75V15C15 14.3125 14.4375 13.75 13.75 13.75H10V12.5H15V10H12.5V8.75H10V10H8.75C8.0625 10 7.5 10.5625 7.5 11.25V15C7.5 15.6875 8.0625 16.25 8.75 16.25H12.5V17.5H7.5V20H10V21.25ZM25 5H5C3.6125 5 2.5125 6.1125 2.5125 7.5L2.5 22.5C2.5 23.8875 3.6125 25 5 25H25C26.3875 25 27.5 23.8875 27.5 22.5V7.5C27.5 6.1125 26.3875 5 25 5ZM25 22.5H5V7.5H25V22.5ZM17.5 12.5L20 10L22.5 12.5H17.5ZM22.5 17.8125L20 20.3125L17.5 17.8125" fill="white" fill-opacity="0.69"/>
</svg>
