<svg width="22" height="29" viewBox="0 0 22 29" fill="none" xmlns="http://www.w3.org/2000/svg">
<path d="M18.9999 9.66683H17.6666V7.00016C17.6666 3.32016 14.6799 0.333496 10.9999 0.333496C7.31992 0.333496 4.33325 3.32016 4.33325 7.00016V9.66683H2.99992C1.53325 9.66683 0.333252 10.8668 0.333252 12.3335V25.6668C0.333252 27.1335 1.53325 28.3335 2.99992 28.3335H18.9999C20.4666 28.3335 21.6666 27.1335 21.6666 25.6668V12.3335C21.6666 10.8668 20.4666 9.66683 18.9999 9.66683ZM10.9999 21.6668C9.53325 21.6668 8.33325 20.4668 8.33325 19.0002C8.33325 17.5335 9.53325 16.3335 10.9999 16.3335C12.4666 16.3335 13.6666 17.5335 13.6666 19.0002C13.6666 20.4668 12.4666 21.6668 10.9999 21.6668ZM15.1333 9.66683H6.86658V7.00016C6.86658 4.72016 8.71992 2.86683 10.9999 2.86683C13.2799 2.86683 15.1333 4.72016 15.1333 7.00016V9.66683Z" fill="white" fill-opacity="0.69"/>
</svg>
