<svg width="47" height="30" viewBox="0 0 47 30" fill="none" xmlns="http://www.w3.org/2000/svg">
<path d="M14.75 0.625C6.81846 0.625 0.375 7.06846 0.375 15C0.375 22.9315 6.81846 29.375 14.75 29.375C18.0405 29.375 21.0711 28.2569 23.4951 26.394C25.9208 28.2617 28.956 29.375 32.25 29.375C40.1817 29.375 46.625 22.9317 46.625 15C46.625 7.06831 40.1817 0.625 32.25 0.625C28.956 0.625 25.9208 1.73832 23.4951 3.60596C21.0711 1.74306 18.0405 0.625 14.75 0.625ZM14.75 1.875C17.6612 1.875 20.3392 2.82865 22.5149 4.42993C19.6635 7.05781 17.875 10.822 17.875 15C17.875 19.178 19.6635 22.9422 22.5149 25.5701C20.3392 27.1713 17.6612 28.125 14.75 28.125C7.49404 28.125 1.625 22.256 1.625 15C1.625 7.74404 7.49404 1.875 14.75 1.875ZM32.25 1.875C38.4713 1.875 43.6688 6.19072 45.0259 11.9946C44.8632 12.1075 44.75 12.2871 44.75 12.5C44.75 12.7956 44.96 13.032 45.2358 13.0969C45.3259 13.7183 45.375 14.3534 45.375 15C45.375 15.2108 45.3689 15.4203 45.3591 15.6287C45.022 15.6377 44.75 15.9107 44.75 16.25C44.75 16.5482 44.9637 16.7859 45.2432 16.8481C45.0184 18.447 44.507 19.9521 43.7612 21.311C43.6811 21.2737 43.5942 21.25 43.5 21.25C43.155 21.25 42.875 21.53 42.875 21.875C42.875 22.075 42.9753 22.2452 43.1216 22.3596C42.8415 22.7728 42.5326 23.1636 42.2085 23.5413C42.1219 23.3 41.8959 23.125 41.625 23.125C41.28 23.125 41 23.405 41 23.75C41 24.0391 41.2008 24.2719 41.4675 24.3433C41.1023 24.7036 40.7108 25.0358 40.3054 25.3516C40.2032 25.1455 39.9955 25 39.75 25C39.405 25 39.125 25.28 39.125 25.625C39.125 25.7943 39.1937 25.947 39.3032 26.0596C38.8162 26.3705 38.3079 26.6489 37.7798 26.8945C37.6456 26.916 37.522 26.9692 37.4307 27.0618C36.5299 27.4486 35.5771 27.7361 34.5852 27.9138C34.6847 27.8031 34.75 27.6605 34.75 27.5C34.75 27.155 34.47 26.875 34.125 26.875C33.78 26.875 33.5 27.155 33.5 27.5C33.5 27.7291 33.6298 27.921 33.8137 28.0298C33.3006 28.0906 32.7796 28.125 32.25 28.125C31.7204 28.125 31.1994 28.0906 30.6863 28.0298C30.8702 27.921 31 27.7291 31 27.5C31 27.155 30.72 26.875 30.375 26.875C30.03 26.875 29.75 27.155 29.75 27.5C29.75 27.6605 29.8153 27.8031 29.9148 27.9138C28.9229 27.7361 27.9701 27.4486 27.0693 27.0618C26.978 26.9692 26.8544 26.916 26.7202 26.8945C26.1921 26.6489 25.6838 26.3705 25.1968 26.0596C25.3063 25.947 25.375 25.7943 25.375 25.625C25.375 25.28 25.095 25 24.75 25C24.5045 25 24.2968 25.1455 24.1946 25.3516C23.7892 25.0358 23.3977 24.7036 23.0325 24.3433C23.2992 24.2719 23.5 24.0391 23.5 23.75C23.5 23.405 23.22 23.125 22.875 23.125C22.6041 23.125 22.3781 23.3 22.2915 23.5413C21.9674 23.1636 21.6585 22.7728 21.3784 22.3596C21.5247 22.2452 21.625 22.075 21.625 21.875C21.625 21.53 21.345 21.25 21 21.25C20.9058 21.25 20.8189 21.2737 20.7388 21.311C19.993 19.9521 19.4816 18.447 19.2568 16.8481C19.5363 16.7859 19.75 16.5482 19.75 16.25C19.75 15.9107 19.478 15.6377 19.1409 15.6287C19.1311 15.4203 19.125 15.2108 19.125 15C19.125 14.3534 19.1741 13.7183 19.2642 13.0969C19.54 13.032 19.75 12.7956 19.75 12.5C19.75 12.2871 19.6368 12.1075 19.4741 11.9946C20.8312 6.19072 26.0287 1.875 32.25 1.875ZM28.5 2.5C28.155 2.5 27.875 2.78 27.875 3.125C27.875 3.47 28.155 3.75 28.5 3.75C28.845 3.75 29.125 3.47 29.125 3.125C29.125 2.78 28.845 2.5 28.5 2.5ZM32.25 2.5C31.905 2.5 31.625 2.78 31.625 3.125C31.625 3.47 31.905 3.75 32.25 3.75C32.595 3.75 32.875 3.47 32.875 3.125C32.875 2.78 32.595 2.5 32.25 2.5ZM36 2.5C35.655 2.5 35.375 2.78 35.375 3.125C35.375 3.47 35.655 3.75 36 3.75C36.345 3.75 36.625 3.47 36.625 3.125C36.625 2.78 36.345 2.5 36 2.5ZM26.625 4.375C26.28 4.375 26 4.655 26 5C26 5.345 26.28 5.625 26.625 5.625C26.97 5.625 27.25 5.345 27.25 5C27.25 4.655 26.97 4.375 26.625 4.375ZM30.375 4.375C30.03 4.375 29.75 4.655 29.75 5C29.75 5.345 30.03 5.625 30.375 5.625C30.72 5.625 31 5.345 31 5C31 4.655 30.72 4.375 30.375 4.375ZM34.125 4.375C33.78 4.375 33.5 4.655 33.5 5C33.5 5.345 33.78 5.625 34.125 5.625C34.47 5.625 34.75 5.345 34.75 5C34.75 4.655 34.47 4.375 34.125 4.375ZM37.875 4.375C37.53 4.375 37.25 4.655 37.25 5C37.25 5.345 37.53 5.625 37.875 5.625C38.22 5.625 38.5 5.345 38.5 5C38.5 4.655 38.22 4.375 37.875 4.375ZM24.75 6.25C24.405 6.25 24.125 6.53 24.125 6.875C24.125 7.22 24.405 7.5 24.75 7.5C25.095 7.5 25.375 7.22 25.375 6.875C25.375 6.53 25.095 6.25 24.75 6.25ZM28.5 6.25C28.155 6.25 27.875 6.53 27.875 6.875C27.875 7.22 28.155 7.5 28.5 7.5C28.845 7.5 29.125 7.22 29.125 6.875C29.125 6.53 28.845 6.25 28.5 6.25ZM32.25 6.25C31.905 6.25 31.625 6.53 31.625 6.875C31.625 7.22 31.905 7.5 32.25 7.5C32.595 7.5 32.875 7.22 32.875 6.875C32.875 6.53 32.595 6.25 32.25 6.25ZM36 6.25C35.655 6.25 35.375 6.53 35.375 6.875C35.375 7.22 35.655 7.5 36 7.5C36.345 7.5 36.625 7.22 36.625 6.875C36.625 6.53 36.345 6.25 36 6.25ZM39.75 6.25C39.405 6.25 39.125 6.53 39.125 6.875C39.125 7.22 39.405 7.5 39.75 7.5C40.095 7.5 40.375 7.22 40.375 6.875C40.375 6.53 40.095 6.25 39.75 6.25ZM22.875 8.125C22.53 8.125 22.25 8.405 22.25 8.75C22.25 9.095 22.53 9.375 22.875 9.375C23.22 9.375 23.5 9.095 23.5 8.75C23.5 8.405 23.22 8.125 22.875 8.125ZM26.625 8.125C26.28 8.125 26 8.405 26 8.75C26 9.095 26.28 9.375 26.625 9.375C26.97 9.375 27.25 9.095 27.25 8.75C27.25 8.405 26.97 8.125 26.625 8.125ZM30.375 8.125C30.03 8.125 29.75 8.405 29.75 8.75C29.75 9.095 30.03 9.375 30.375 9.375C30.72 9.375 31 9.095 31 8.75C31 8.405 30.72 8.125 30.375 8.125ZM34.125 8.125C33.78 8.125 33.5 8.405 33.5 8.75C33.5 9.095 33.78 9.375 34.125 9.375C34.47 9.375 34.75 9.095 34.75 8.75C34.75 8.405 34.47 8.125 34.125 8.125ZM37.875 8.125C37.53 8.125 37.25 8.405 37.25 8.75C37.25 9.095 37.53 9.375 37.875 9.375C38.22 9.375 38.5 9.095 38.5 8.75C38.5 8.405 38.22 8.125 37.875 8.125ZM41.625 8.125C41.28 8.125 41 8.405 41 8.75C41 9.095 41.28 9.375 41.625 9.375C41.97 9.375 42.25 9.095 42.25 8.75C42.25 8.405 41.97 8.125 41.625 8.125ZM21 10C20.655 10 20.375 10.28 20.375 10.625C20.375 10.97 20.655 11.25 21 11.25C21.345 11.25 21.625 10.97 21.625 10.625C21.625 10.28 21.345 10 21 10ZM24.75 10C24.405 10 24.125 10.28 24.125 10.625C24.125 10.97 24.405 11.25 24.75 11.25C25.095 11.25 25.375 10.97 25.375 10.625C25.375 10.28 25.095 10 24.75 10ZM28.5 10C28.155 10 27.875 10.28 27.875 10.625C27.875 10.97 28.155 11.25 28.5 11.25C28.845 11.25 29.125 10.97 29.125 10.625C29.125 10.28 28.845 10 28.5 10ZM32.25 10C31.905 10 31.625 10.28 31.625 10.625C31.625 10.97 31.905 11.25 32.25 11.25C32.595 11.25 32.875 10.97 32.875 10.625C32.875 10.28 32.595 10 32.25 10ZM36 10C35.655 10 35.375 10.28 35.375 10.625C35.375 10.97 35.655 11.25 36 11.25C36.345 11.25 36.625 10.97 36.625 10.625C36.625 10.28 36.345 10 36 10ZM39.75 10C39.405 10 39.125 10.28 39.125 10.625C39.125 10.97 39.405 11.25 39.75 11.25C40.095 11.25 40.375 10.97 40.375 10.625C40.375 10.28 40.095 10 39.75 10ZM43.5 10C43.155 10 42.875 10.28 42.875 10.625C42.875 10.97 43.155 11.25 43.5 11.25C43.845 11.25 44.125 10.97 44.125 10.625C44.125 10.28 43.845 10 43.5 10ZM22.875 11.875C22.53 11.875 22.25 12.155 22.25 12.5C22.25 12.845 22.53 13.125 22.875 13.125C23.22 13.125 23.5 12.845 23.5 12.5C23.5 12.155 23.22 11.875 22.875 11.875ZM26.625 11.875C26.28 11.875 26 12.155 26 12.5C26 12.845 26.28 13.125 26.625 13.125C26.97 13.125 27.25 12.845 27.25 12.5C27.25 12.155 26.97 11.875 26.625 11.875ZM30.375 11.875C30.03 11.875 29.75 12.155 29.75 12.5C29.75 12.845 30.03 13.125 30.375 13.125C30.72 13.125 31 12.845 31 12.5C31 12.155 30.72 11.875 30.375 11.875ZM34.125 11.875C33.78 11.875 33.5 12.155 33.5 12.5C33.5 12.845 33.78 13.125 34.125 13.125C34.47 13.125 34.75 12.845 34.75 12.5C34.75 12.155 34.47 11.875 34.125 11.875ZM37.875 11.875C37.53 11.875 37.25 12.155 37.25 12.5C37.25 12.845 37.53 13.125 37.875 13.125C38.22 13.125 38.5 12.845 38.5 12.5C38.5 12.155 38.22 11.875 37.875 11.875ZM41.625 11.875C41.28 11.875 41 12.155 41 12.5C41 12.845 41.28 13.125 41.625 13.125C41.97 13.125 42.25 12.845 42.25 12.5C42.25 12.155 41.97 11.875 41.625 11.875ZM21 13.75C20.655 13.75 20.375 14.03 20.375 14.375C20.375 14.72 20.655 15 21 15C21.345 15 21.625 14.72 21.625 14.375C21.625 14.03 21.345 13.75 21 13.75ZM24.75 13.75C24.405 13.75 24.125 14.03 24.125 14.375C24.125 14.72 24.405 15 24.75 15C25.095 15 25.375 14.72 25.375 14.375C25.375 14.03 25.095 13.75 24.75 13.75ZM28.5 13.75C28.155 13.75 27.875 14.03 27.875 14.375C27.875 14.72 28.155 15 28.5 15C28.845 15 29.125 14.72 29.125 14.375C29.125 14.03 28.845 13.75 28.5 13.75ZM32.25 13.75C31.905 13.75 31.625 14.03 31.625 14.375C31.625 14.72 31.905 15 32.25 15C32.595 15 32.875 14.72 32.875 14.375C32.875 14.03 32.595 13.75 32.25 13.75ZM36 13.75C35.655 13.75 35.375 14.03 35.375 14.375C35.375 14.72 35.655 15 36 15C36.345 15 36.625 14.72 36.625 14.375C36.625 14.03 36.345 13.75 36 13.75ZM39.75 13.75C39.405 13.75 39.125 14.03 39.125 14.375C39.125 14.72 39.405 15 39.75 15C40.095 15 40.375 14.72 40.375 14.375C40.375 14.03 40.095 13.75 39.75 13.75ZM43.5 13.75C43.155 13.75 42.875 14.03 42.875 14.375C42.875 14.72 43.155 15 43.5 15C43.845 15 44.125 14.72 44.125 14.375C44.125 14.03 43.845 13.75 43.5 13.75ZM22.875 15.625C22.53 15.625 22.25 15.905 22.25 16.25C22.25 16.595 22.53 16.875 22.875 16.875C23.22 16.875 23.5 16.595 23.5 16.25C23.5 15.905 23.22 15.625 22.875 15.625ZM26.625 15.625C26.28 15.625 26 15.905 26 16.25C26 16.595 26.28 16.875 26.625 16.875C26.97 16.875 27.25 16.595 27.25 16.25C27.25 15.905 26.97 15.625 26.625 15.625ZM30.375 15.625C30.03 15.625 29.75 15.905 29.75 16.25C29.75 16.595 30.03 16.875 30.375 16.875C30.72 16.875 31 16.595 31 16.25C31 15.905 30.72 15.625 30.375 15.625ZM34.125 15.625C33.78 15.625 33.5 15.905 33.5 16.25C33.5 16.595 33.78 16.875 34.125 16.875C34.47 16.875 34.75 16.595 34.75 16.25C34.75 15.905 34.47 15.625 34.125 15.625ZM37.875 15.625C37.53 15.625 37.25 15.905 37.25 16.25C37.25 16.595 37.53 16.875 37.875 16.875C38.22 16.875 38.5 16.595 38.5 16.25C38.5 15.905 38.22 15.625 37.875 15.625ZM41.625 15.625C41.28 15.625 41 15.905 41 16.25C41 16.595 41.28 16.875 41.625 16.875C41.97 16.875 42.25 16.595 42.25 16.25C42.25 15.905 41.97 15.625 41.625 15.625ZM21 17.5C20.655 17.5 20.375 17.78 20.375 18.125C20.375 18.47 20.655 18.75 21 18.75C21.345 18.75 21.625 18.47 21.625 18.125C21.625 17.78 21.345 17.5 21 17.5ZM24.75 17.5C24.405 17.5 24.125 17.78 24.125 18.125C24.125 18.47 24.405 18.75 24.75 18.75C25.095 18.75 25.375 18.47 25.375 18.125C25.375 17.78 25.095 17.5 24.75 17.5ZM28.5 17.5C28.155 17.5 27.875 17.78 27.875 18.125C27.875 18.47 28.155 18.75 28.5 18.75C28.845 18.75 29.125 18.47 29.125 18.125C29.125 17.78 28.845 17.5 28.5 17.5ZM32.25 17.5C31.905 17.5 31.625 17.78 31.625 18.125C31.625 18.47 31.905 18.75 32.25 18.75C32.595 18.75 32.875 18.47 32.875 18.125C32.875 17.78 32.595 17.5 32.25 17.5ZM36 17.5C35.655 17.5 35.375 17.78 35.375 18.125C35.375 18.47 35.655 18.75 36 18.75C36.345 18.75 36.625 18.47 36.625 18.125C36.625 17.78 36.345 17.5 36 17.5ZM39.75 17.605C39.405 17.605 39.125 17.8844 39.125 18.23C39.125 18.575 39.405 18.855 39.75 18.855C40.095 18.855 40.375 18.575 40.375 18.23C40.375 17.885 40.095 17.605 39.75 17.605ZM43.5 17.605C43.155 17.605 42.875 17.8844 42.875 18.23C42.875 18.575 43.155 18.855 43.5 18.855C43.845 18.855 44.125 18.575 44.125 18.23C44.125 17.885 43.845 17.605 43.5 17.605ZM22.875 19.375C22.53 19.375 22.25 19.655 22.25 20C22.25 20.345 22.53 20.625 22.875 20.625C23.22 20.625 23.5 20.345 23.5 20C23.5 19.655 23.22 19.375 22.875 19.375ZM26.625 19.375C26.28 19.375 26 19.655 26 20C26 20.345 26.28 20.625 26.625 20.625C26.97 20.625 27.25 20.345 27.25 20C27.25 19.655 26.97 19.375 26.625 19.375ZM30.375 19.375C30.03 19.375 29.75 19.655 29.75 20C29.75 20.345 30.03 20.625 30.375 20.625C30.72 20.625 31 20.345 31 20C31 19.655 30.72 19.375 30.375 19.375ZM34.125 19.375C33.78 19.375 33.5 19.655 33.5 20C33.5 20.345 33.78 20.625 34.125 20.625C34.47 20.625 34.75 20.345 34.75 20C34.75 19.655 34.47 19.375 34.125 19.375ZM37.875 19.375C37.53 19.375 37.25 19.655 37.25 20C37.25 20.345 37.53 20.625 37.875 20.625C38.22 20.625 38.5 20.345 38.5 20C38.5 19.655 38.22 19.375 37.875 19.375ZM41.625 19.48C41.28 19.48 41 19.7594 41 20.105C41 20.45 41.28 20.73 41.625 20.73C41.97 20.73 42.25 20.45 42.25 20.105C42.25 19.76 41.97 19.48 41.625 19.48ZM24.75 21.25C24.405 21.25 24.125 21.53 24.125 21.875C24.125 22.22 24.405 22.5 24.75 22.5C25.095 22.5 25.375 22.22 25.375 21.875C25.375 21.53 25.095 21.25 24.75 21.25ZM28.5 21.25C28.155 21.25 27.875 21.53 27.875 21.875C27.875 22.22 28.155 22.5 28.5 22.5C28.845 22.5 29.125 22.22 29.125 21.875C29.125 21.53 28.845 21.25 28.5 21.25ZM32.25 21.25C31.905 21.25 31.625 21.53 31.625 21.875C31.625 22.22 31.905 22.5 32.25 22.5C32.595 22.5 32.875 22.22 32.875 21.875C32.875 21.53 32.595 21.25 32.25 21.25ZM36 21.25C35.655 21.25 35.375 21.53 35.375 21.875C35.375 22.22 35.655 22.5 36 22.5C36.345 22.5 36.625 22.22 36.625 21.875C36.625 21.53 36.345 21.25 36 21.25ZM39.75 21.25C39.405 21.25 39.125 21.53 39.125 21.875C39.125 22.22 39.405 22.5 39.75 22.5C40.095 22.5 40.375 22.22 40.375 21.875C40.375 21.53 40.095 21.25 39.75 21.25ZM26.625 23.125C26.28 23.125 26 23.405 26 23.75C26 24.095 26.28 24.375 26.625 24.375C26.97 24.375 27.25 24.095 27.25 23.75C27.25 23.405 26.97 23.125 26.625 23.125ZM30.375 23.125C30.03 23.125 29.75 23.405 29.75 23.75C29.75 24.095 30.03 24.375 30.375 24.375C30.72 24.375 31 24.095 31 23.75C31 23.405 30.72 23.125 30.375 23.125ZM34.125 23.125C33.78 23.125 33.5 23.405 33.5 23.75C33.5 24.095 33.78 24.375 34.125 24.375C34.47 24.375 34.75 24.095 34.75 23.75C34.75 23.405 34.47 23.125 34.125 23.125ZM37.875 23.125C37.53 23.125 37.25 23.405 37.25 23.75C37.25 24.095 37.53 24.375 37.875 24.375C38.22 24.375 38.5 24.095 38.5 23.75C38.5 23.405 38.22 23.125 37.875 23.125ZM28.5 25C28.155 25 27.875 25.28 27.875 25.625C27.875 25.97 28.155 26.25 28.5 26.25C28.845 26.25 29.125 25.97 29.125 25.625C29.125 25.28 28.845 25 28.5 25ZM32.25 25C31.905 25 31.625 25.28 31.625 25.625C31.625 25.97 31.905 26.25 32.25 26.25C32.595 26.25 32.875 25.97 32.875 25.625C32.875 25.28 32.595 25 32.25 25ZM36 25C35.655 25 35.375 25.28 35.375 25.625C35.375 25.97 35.655 26.25 36 26.25C36.345 26.25 36.625 25.97 36.625 25.625C36.625 25.28 36.345 25 36 25Z" fill="white" fill-opacity="0.89"/>
</svg>
