<svg width="35" height="35" viewBox="0 0 35 35" fill="none" xmlns="http://www.w3.org/2000/svg">
<path d="M18.2292 10.0625C20.8251 10.0625 21.7876 11.3021 21.8751 13.125H25.098C24.9959 10.6167 23.4646 8.3125 20.4167 7.56875V4.375H16.0417V7.525C15.2688 7.7 14.5396 7.9625 13.8834 8.3125L16.0271 10.4563C16.6251 10.2083 17.3542 10.0625 18.2292 10.0625ZM7.77298 5.92083L5.9209 7.77292L10.9376 12.7896C10.9376 15.8229 13.2126 17.4708 16.6396 18.4917L21.7584 23.6104C21.2626 24.3104 20.2271 24.9375 18.2292 24.9375C15.2251 24.9375 14.0438 23.5958 13.8834 21.875H10.6751C10.8501 25.0688 13.2417 26.8625 16.0417 27.4604V30.625H20.4167V27.4896C21.8167 27.2271 23.0709 26.6875 23.9896 25.8563L27.2271 29.0938L29.0792 27.2417L7.77298 5.92083Z" fill="#FE3939" fill-opacity="0.89"/>
</svg>
