<svg width="28" height="28" viewBox="0 0 28 28" fill="none" xmlns="http://www.w3.org/2000/svg">
<path d="M14.0001 0.666504C6.64008 0.666504 0.666748 6.63984 0.666748 13.9998C0.666748 21.3598 6.64008 27.3332 14.0001 27.3332C21.3601 27.3332 27.3334 21.3598 27.3334 13.9998C27.3334 6.63984 21.3601 0.666504 14.0001 0.666504ZM23.9467 10.1598L20.2401 11.6932C19.5601 9.87984 18.1334 8.43984 16.3067 7.77317L17.8401 4.0665C20.6401 5.13317 22.8667 7.35984 23.9467 10.1598ZM14.0001 17.9998C11.7867 17.9998 10.0001 16.2132 10.0001 13.9998C10.0001 11.7865 11.7867 9.99984 14.0001 9.99984C16.2134 9.99984 18.0001 11.7865 18.0001 13.9998C18.0001 16.2132 16.2134 17.9998 14.0001 17.9998ZM10.1734 4.05317L11.7334 7.75984C9.89342 8.4265 8.44008 9.87984 7.76008 11.7198L4.05341 10.1732C5.13341 7.35984 7.36008 5.13317 10.1734 4.05317ZM4.05341 17.8265L7.76008 16.2932C8.44008 18.1332 9.88008 19.5732 11.7201 20.2398L10.1601 23.9465C7.36008 22.8665 5.13341 20.6398 4.05341 17.8265ZM17.8401 23.9465L16.3067 20.2398C18.1334 19.5598 19.5734 18.1198 20.2401 16.2798L23.9467 17.8398C22.8667 20.6398 20.6401 22.8665 17.8401 23.9465Z" fill="white" fill-opacity="0.69"/>
</svg>
