<svg width="20" height="21" viewBox="0 0 20 21" fill="none" xmlns="http://www.w3.org/2000/svg">
<g clip-path="url(#clip0)">
<path d="M17.7052 11.48C17.7452 11.16 17.7752 10.84 17.7752 10.5C17.7752 10.16 17.7452 9.84 17.7052 9.52L19.8152 7.87C20.0052 7.72 20.0552 7.45 19.9352 7.23L17.9352 3.77C17.8452 3.61 17.6752 3.52 17.4952 3.52C17.4352 3.52 17.3752 3.53 17.3252 3.55L14.8352 4.55C14.3152 4.15 13.7552 3.82 13.1452 3.57L12.7652 0.92C12.7352 0.68 12.5252 0.5 12.2752 0.5H8.27523C8.02523 0.5 7.81523 0.68 7.78523 0.92L7.40523 3.57C6.79523 3.82 6.23523 4.16 5.71523 4.55L3.22523 3.55C3.16523 3.53 3.10523 3.52 3.04523 3.52C2.87523 3.52 2.70523 3.61 2.61523 3.77L0.61523 7.23C0.48523 7.45 0.54523 7.72 0.73523 7.87L2.84523 9.52C2.80523 9.84 2.77523 10.17 2.77523 10.5C2.77523 10.83 2.80523 11.16 2.84523 11.48L0.73523 13.13C0.54523 13.28 0.49523 13.55 0.61523 13.77L2.61523 17.23C2.70523 17.39 2.87523 17.48 3.05523 17.48C3.11523 17.48 3.17523 17.47 3.22523 17.45L5.71523 16.45C6.23523 16.85 6.79523 17.18 7.40523 17.43L7.78523 20.08C7.81523 20.32 8.02523 20.5 8.27523 20.5H12.2752C12.5252 20.5 12.7352 20.32 12.7652 20.08L13.1452 17.43C13.7552 17.18 14.3152 16.84 14.8352 16.45L17.3252 17.45C17.3852 17.47 17.4452 17.48 17.5052 17.48C17.6752 17.48 17.8452 17.39 17.9352 17.23L19.9352 13.77C20.0552 13.55 20.0052 13.28 19.8152 13.13L17.7052 11.48ZM15.7252 9.77C15.7652 10.08 15.7752 10.29 15.7752 10.5C15.7752 10.71 15.7552 10.93 15.7252 11.23L15.5852 12.36L16.4752 13.06L17.5552 13.9L16.8552 15.11L15.5852 14.6L14.5452 14.18L13.6452 14.86C13.2152 15.18 12.8052 15.42 12.3952 15.59L11.3352 16.02L11.1752 17.15L10.9752 18.5H9.57523L9.38523 17.15L9.22523 16.02L8.16523 15.59C7.73523 15.41 7.33523 15.18 6.93523 14.88L6.02523 14.18L4.96523 14.61L3.69523 15.12L2.99523 13.91L4.07523 13.07L4.96523 12.37L4.82523 11.24C4.79523 10.93 4.77523 10.7 4.77523 10.5C4.77523 10.3 4.79523 10.07 4.82523 9.77L4.96523 8.64L4.07523 7.94L2.99523 7.1L3.69523 5.89L4.96523 6.4L6.00523 6.82L6.90523 6.14C7.33523 5.82 7.74523 5.58 8.15523 5.41L9.21523 4.98L9.37523 3.85L9.57523 2.5H10.9652L11.1552 3.85L11.3152 4.98L12.3752 5.41C12.8052 5.59 13.2052 5.82 13.6052 6.12L14.5152 6.82L15.5752 6.39L16.8452 5.88L17.5452 7.09L16.4752 7.94L15.5852 8.64L15.7252 9.77ZM10.2752 6.5C8.06523 6.5 6.27523 8.29 6.27523 10.5C6.27523 12.71 8.06523 14.5 10.2752 14.5C12.4852 14.5 14.2752 12.71 14.2752 10.5C14.2752 8.29 12.4852 6.5 10.2752 6.5ZM10.2752 12.5C9.17523 12.5 8.27523 11.6 8.27523 10.5C8.27523 9.4 9.17523 8.5 10.2752 8.5C11.3752 8.5 12.2752 9.4 12.2752 10.5C12.2752 11.6 11.3752 12.5 10.2752 12.5Z" fill="white" fill-opacity="0.69"/>
</g>
<defs>
<clipPath id="clip0">
<rect width="20" height="20" fill="white" transform="translate(0 0.5)"/>
</clipPath>
</defs>
</svg>
