<svg width="60" height="20" viewBox="0 0 60 20" fill="none" xmlns="http://www.w3.org/2000/svg">
<path d="M24.9894 0.721802L20.907 19.5259H25.8554L29.8141 0.721802H24.9894Z" fill="white"/>
<path d="M17.8145 0.721582L12.7423 13.4638L10.6391 2.57725C10.3917 1.34014 9.40205 0.721582 8.41236 0.721582H0.123681L0 1.21646C1.73196 1.58759 3.58766 2.20613 4.82477 2.82469C5.56704 3.19582 5.69071 3.56694 5.93813 4.43292L9.77323 19.402H14.969L22.8866 0.5979H17.8145V0.721582Z" fill="white"/>
<path d="M56.2887 0.721802H52.0825C51.0928 0.721802 50.3506 1.21669 49.9794 2.08267L42.6804 19.5259H47.7526L48.7423 16.6806H54.9279L55.5464 19.5259H60L56.2887 0.721802ZM50.3505 12.8455L52.9484 5.79401L54.433 12.8455H50.3505Z" fill="white"/>
<path d="M36.2476 5.9176C36.2476 5.29904 36.8662 4.55679 38.3507 4.30936C39.093 4.18565 40.9487 4.18567 43.1755 5.17536L44.0414 1.21658C42.928 0.845446 41.3198 0.350586 39.4641 0.350586C34.6394 0.350586 31.2992 2.94852 31.2992 6.53615C31.2992 9.2578 33.7734 10.7423 35.5054 11.6083C37.361 12.4743 37.9796 13.0929 37.9796 13.9588C37.9796 15.1959 36.495 15.8145 35.0105 15.8145C32.5363 15.8145 31.1754 15.1959 30.062 14.5774L29.196 18.6598C30.3094 19.1547 32.4126 19.6495 34.6394 19.6495C39.7115 19.6495 43.0517 17.1754 43.0517 13.2166C43.0517 8.51556 36.1239 8.1444 36.2476 5.9176Z" fill="white"/>
</svg>
