<svg width="559" height="239" viewBox="0 0 559 239" fill="none" xmlns="http://www.w3.org/2000/svg">
<path d="M4.97 15H3.766V8.014C3.766 7.61267 3.77067 7.29067 3.78 7.048C3.78933 6.80533 3.80333 6.55333 3.822 6.292C3.67267 6.44133 3.53733 6.56733 3.416 6.67C3.29467 6.77267 3.14067 6.90333 2.954 7.062L1.89 7.93L1.246 7.104L3.948 5.004H4.97V15ZM15.7397 12.732H14.2837V15H13.0937V12.732H8.30572V11.682L13.0097 4.948H14.2837V11.626H15.7397V12.732ZM13.0937 8.476C13.0937 7.99067 13.1031 7.58 13.1217 7.244C13.1404 6.89867 13.1544 6.572 13.1637 6.264H13.1077C13.0331 6.44133 12.9397 6.63267 12.8277 6.838C12.7157 7.04333 12.6084 7.216 12.5057 7.356L9.50972 11.626H13.0937V8.476ZM19.8734 8.868C20.9001 8.868 21.7168 9.12467 22.3234 9.638C22.9301 10.1513 23.2334 10.8747 23.2334 11.808C23.2334 12.844 22.9021 13.6607 22.2394 14.258C21.5861 14.846 20.6714 15.14 19.4954 15.14C18.9821 15.14 18.4968 15.0933 18.0394 15C17.5914 14.9067 17.2134 14.7713 16.9054 14.594V13.432C17.2414 13.6373 17.6474 13.8007 18.1234 13.922C18.6088 14.034 19.0708 14.09 19.5094 14.09C20.2468 14.09 20.8394 13.9173 21.2874 13.572C21.7448 13.2173 21.9734 12.6713 21.9734 11.934C21.9734 11.2807 21.7728 10.7813 21.3714 10.436C20.9701 10.0813 20.3354 9.904 19.4674 9.904C19.2061 9.904 18.9074 9.92733 18.5714 9.974C18.2354 10.0207 17.9648 10.0673 17.7594 10.114L17.1434 9.722L17.5214 5.004H22.5334V6.124H18.5714L18.3334 9.022C18.4921 8.994 18.7068 8.96133 18.9774 8.924C19.2481 8.88667 19.5468 8.868 19.8734 8.868ZM25.0432 14.244C25.0432 13.8987 25.1272 13.656 25.2952 13.516C25.4632 13.376 25.6638 13.306 25.8972 13.306C26.1398 13.306 26.3452 13.376 26.5132 13.516C26.6905 13.656 26.7792 13.8987 26.7792 14.244C26.7792 14.58 26.6905 14.8227 26.5132 14.972C26.3452 15.1213 26.1398 15.196 25.8972 15.196C25.6638 15.196 25.4632 15.1213 25.2952 14.972C25.1272 14.8227 25.0432 14.58 25.0432 14.244ZM35.1033 9.988C35.1033 11.0613 34.9913 11.9853 34.7673 12.76C34.5433 13.5253 34.1886 14.1133 33.7033 14.524C33.2179 14.9347 32.5739 15.14 31.7713 15.14C30.6419 15.14 29.8066 14.6873 29.2653 13.782C28.7333 12.8673 28.4673 11.6027 28.4673 9.988C28.4673 8.90533 28.5746 7.98133 28.7893 7.216C29.0133 6.45067 29.3679 5.86733 29.8533 5.466C30.3386 5.05533 30.9779 4.85 31.7713 4.85C32.8913 4.85 33.7266 5.30267 34.2773 6.208C34.8279 7.104 35.1033 8.364 35.1033 9.988ZM29.6993 9.988C29.6993 11.36 29.8533 12.3867 30.1613 13.068C30.4786 13.7493 31.0153 14.09 31.7713 14.09C32.5179 14.09 33.0499 13.754 33.3673 13.082C33.6939 12.4007 33.8573 11.3693 33.8573 9.988C33.8573 8.62533 33.6939 7.60333 33.3673 6.922C33.0499 6.24067 32.5179 5.9 31.7713 5.9C31.0153 5.9 30.4786 6.24067 30.1613 6.922C29.8533 7.60333 29.6993 8.62533 29.6993 9.988ZM43.115 9.988C43.115 11.0613 43.003 11.9853 42.779 12.76C42.555 13.5253 42.2003 14.1133 41.715 14.524C41.2296 14.9347 40.5856 15.14 39.783 15.14C38.6536 15.14 37.8183 14.6873 37.277 13.782C36.745 12.8673 36.479 11.6027 36.479 9.988C36.479 8.90533 36.5863 7.98133 36.801 7.216C37.025 6.45067 37.3796 5.86733 37.865 5.466C38.3503 5.05533 38.9896 4.85 39.783 4.85C40.903 4.85 41.7383 5.30267 42.289 6.208C42.8396 7.104 43.115 8.364 43.115 9.988ZM37.711 9.988C37.711 11.36 37.865 12.3867 38.173 13.068C38.4903 13.7493 39.027 14.09 39.783 14.09C40.5296 14.09 41.0616 13.754 41.379 13.082C41.7056 12.4007 41.869 11.3693 41.869 9.988C41.869 8.62533 41.7056 7.60333 41.379 6.922C41.0616 6.24067 40.5296 5.9 39.783 5.9C39.027 5.9 38.4903 6.24067 38.173 6.922C37.865 7.60333 37.711 8.62533 37.711 9.988Z" fill="white" fill-opacity="0.69"/>
<path d="M4.97 48.5H3.766V41.514C3.766 41.1127 3.77067 40.7907 3.78 40.548C3.78933 40.3053 3.80333 40.0533 3.822 39.792C3.67267 39.9413 3.53733 40.0673 3.416 40.17C3.29467 40.2727 3.14067 40.4033 2.954 40.562L1.89 41.43L1.246 40.604L3.948 38.504H4.97V48.5ZM15.7397 46.232H14.2837V48.5H13.0937V46.232H8.30572V45.182L13.0097 38.448H14.2837V45.126H15.7397V46.232ZM13.0937 41.976C13.0937 41.4907 13.1031 41.08 13.1217 40.744C13.1404 40.3987 13.1544 40.072 13.1637 39.764H13.1077C13.0331 39.9413 12.9397 40.1327 12.8277 40.338C12.7157 40.5433 12.6084 40.716 12.5057 40.856L9.50972 45.126H13.0937V41.976ZM23.3454 43.488C23.3454 44.5613 23.2334 45.4853 23.0094 46.26C22.7854 47.0253 22.4308 47.6133 21.9454 48.024C21.4601 48.4347 20.8161 48.64 20.0134 48.64C18.8841 48.64 18.0488 48.1873 17.5074 47.282C16.9754 46.3673 16.7094 45.1027 16.7094 43.488C16.7094 42.4053 16.8168 41.4813 17.0314 40.716C17.2554 39.9507 17.6101 39.3673 18.0954 38.966C18.5808 38.5553 19.2201 38.35 20.0134 38.35C21.1334 38.35 21.9688 38.8027 22.5194 39.708C23.0701 40.604 23.3454 41.864 23.3454 43.488ZM17.9414 43.488C17.9414 44.86 18.0954 45.8867 18.4034 46.568C18.7208 47.2493 19.2574 47.59 20.0134 47.59C20.7601 47.59 21.2921 47.254 21.6094 46.582C21.9361 45.9007 22.0994 44.8693 22.0994 43.488C22.0994 42.1253 21.9361 41.1033 21.6094 40.422C21.2921 39.7407 20.7601 39.4 20.0134 39.4C19.2574 39.4 18.7208 39.7407 18.4034 40.422C18.0954 41.1033 17.9414 42.1253 17.9414 43.488ZM25.0432 47.744C25.0432 47.3987 25.1272 47.156 25.2952 47.016C25.4632 46.876 25.6638 46.806 25.8972 46.806C26.1398 46.806 26.3452 46.876 26.5132 47.016C26.6905 47.156 26.7792 47.3987 26.7792 47.744C26.7792 48.08 26.6905 48.3227 26.5132 48.472C26.3452 48.6213 26.1398 48.696 25.8972 48.696C25.6638 48.696 25.4632 48.6213 25.2952 48.472C25.1272 48.3227 25.0432 48.08 25.0432 47.744ZM35.1033 43.488C35.1033 44.5613 34.9913 45.4853 34.7673 46.26C34.5433 47.0253 34.1886 47.6133 33.7033 48.024C33.2179 48.4347 32.5739 48.64 31.7713 48.64C30.6419 48.64 29.8066 48.1873 29.2653 47.282C28.7333 46.3673 28.4673 45.1027 28.4673 43.488C28.4673 42.4053 28.5746 41.4813 28.7893 40.716C29.0133 39.9507 29.3679 39.3673 29.8533 38.966C30.3386 38.5553 30.9779 38.35 31.7713 38.35C32.8913 38.35 33.7266 38.8027 34.2773 39.708C34.8279 40.604 35.1033 41.864 35.1033 43.488ZM29.6993 43.488C29.6993 44.86 29.8533 45.8867 30.1613 46.568C30.4786 47.2493 31.0153 47.59 31.7713 47.59C32.5179 47.59 33.0499 47.254 33.3673 46.582C33.6939 45.9007 33.8573 44.8693 33.8573 43.488C33.8573 42.1253 33.6939 41.1033 33.3673 40.422C33.0499 39.7407 32.5179 39.4 31.7713 39.4C31.0153 39.4 30.4786 39.7407 30.1613 40.422C29.8533 41.1033 29.6993 42.1253 29.6993 43.488ZM43.115 43.488C43.115 44.5613 43.003 45.4853 42.779 46.26C42.555 47.0253 42.2003 47.6133 41.715 48.024C41.2296 48.4347 40.5856 48.64 39.783 48.64C38.6536 48.64 37.8183 48.1873 37.277 47.282C36.745 46.3673 36.479 45.1027 36.479 43.488C36.479 42.4053 36.5863 41.4813 36.801 40.716C37.025 39.9507 37.3796 39.3673 37.865 38.966C38.3503 38.5553 38.9896 38.35 39.783 38.35C40.903 38.35 41.7383 38.8027 42.289 39.708C42.8396 40.604 43.115 41.864 43.115 43.488ZM37.711 43.488C37.711 44.86 37.865 45.8867 38.173 46.568C38.4903 47.2493 39.027 47.59 39.783 47.59C40.5296 47.59 41.0616 47.254 41.379 46.582C41.7056 45.9007 41.869 44.8693 41.869 43.488C41.869 42.1253 41.7056 41.1033 41.379 40.422C41.0616 39.7407 40.5296 39.4 39.783 39.4C39.027 39.4 38.4903 39.7407 38.173 40.422C37.865 41.1033 37.711 42.1253 37.711 43.488Z" fill="white" fill-opacity="0.69"/>
<path d="M4.97 82H3.766V75.014C3.766 74.6127 3.77067 74.2907 3.78 74.048C3.78933 73.8053 3.80333 73.5533 3.822 73.292C3.67267 73.4413 3.53733 73.5673 3.416 73.67C3.29467 73.7727 3.14067 73.9033 2.954 74.062L1.89 74.93L1.246 74.104L3.948 72.004H4.97V82ZM14.9137 74.342C14.9137 75.014 14.7271 75.5507 14.3537 75.952C13.9804 76.344 13.4764 76.6053 12.8417 76.736V76.792C13.6444 76.8853 14.2417 77.1373 14.6337 77.548C15.0257 77.9587 15.2217 78.4953 15.2217 79.158C15.2217 79.7367 15.0864 80.2547 14.8157 80.712C14.5451 81.16 14.1251 81.51 13.5557 81.762C12.9957 82.014 12.2724 82.14 11.3857 82.14C10.8631 82.14 10.3777 82.098 9.92972 82.014C9.48172 81.9393 9.05239 81.7993 8.64172 81.594V80.446C9.06172 80.6513 9.51439 80.8147 9.99972 80.936C10.4851 81.048 10.9517 81.104 11.3997 81.104C12.2957 81.104 12.9397 80.9313 13.3317 80.586C13.7331 80.2313 13.9337 79.746 13.9337 79.13C13.9337 78.5047 13.6864 78.0567 13.1917 77.786C12.7064 77.506 12.0204 77.366 11.1337 77.366H10.1677V76.316H11.1477C11.9691 76.316 12.5897 76.1433 13.0097 75.798C13.4391 75.4527 13.6537 74.9953 13.6537 74.426C13.6537 73.9407 13.4904 73.5673 13.1637 73.306C12.8371 73.0353 12.3937 72.9 11.8337 72.9C11.2924 72.9 10.8304 72.9793 10.4477 73.138C10.0651 73.2967 9.68705 73.4973 9.31372 73.74L8.69772 72.9C9.05239 72.62 9.49105 72.3773 10.0137 72.172C10.5457 71.9667 11.1477 71.864 11.8197 71.864C12.8651 71.864 13.6397 72.0973 14.1437 72.564C14.6571 73.0307 14.9137 73.6233 14.9137 74.342ZM19.8734 75.868C20.9001 75.868 21.7168 76.1247 22.3234 76.638C22.9301 77.1513 23.2334 77.8747 23.2334 78.808C23.2334 79.844 22.9021 80.6607 22.2394 81.258C21.5861 81.846 20.6714 82.14 19.4954 82.14C18.9821 82.14 18.4968 82.0933 18.0394 82C17.5914 81.9067 17.2134 81.7713 16.9054 81.594V80.432C17.2414 80.6373 17.6474 80.8007 18.1234 80.922C18.6088 81.034 19.0708 81.09 19.5094 81.09C20.2468 81.09 20.8394 80.9173 21.2874 80.572C21.7448 80.2173 21.9734 79.6713 21.9734 78.934C21.9734 78.2807 21.7728 77.7813 21.3714 77.436C20.9701 77.0813 20.3354 76.904 19.4674 76.904C19.2061 76.904 18.9074 76.9273 18.5714 76.974C18.2354 77.0207 17.9648 77.0673 17.7594 77.114L17.1434 76.722L17.5214 72.004H22.5334V73.124H18.5714L18.3334 76.022C18.4921 75.994 18.7068 75.9613 18.9774 75.924C19.2481 75.8867 19.5468 75.868 19.8734 75.868ZM25.0432 81.244C25.0432 80.8987 25.1272 80.656 25.2952 80.516C25.4632 80.376 25.6638 80.306 25.8972 80.306C26.1398 80.306 26.3452 80.376 26.5132 80.516C26.6905 80.656 26.7792 80.8987 26.7792 81.244C26.7792 81.58 26.6905 81.8227 26.5132 81.972C26.3452 82.1213 26.1398 82.196 25.8972 82.196C25.6638 82.196 25.4632 82.1213 25.2952 81.972C25.1272 81.8227 25.0432 81.58 25.0432 81.244ZM35.1033 76.988C35.1033 78.0613 34.9913 78.9853 34.7673 79.76C34.5433 80.5253 34.1886 81.1133 33.7033 81.524C33.2179 81.9347 32.5739 82.14 31.7713 82.14C30.6419 82.14 29.8066 81.6873 29.2653 80.782C28.7333 79.8673 28.4673 78.6027 28.4673 76.988C28.4673 75.9053 28.5746 74.9813 28.7893 74.216C29.0133 73.4507 29.3679 72.8673 29.8533 72.466C30.3386 72.0553 30.9779 71.85 31.7713 71.85C32.8913 71.85 33.7266 72.3027 34.2773 73.208C34.8279 74.104 35.1033 75.364 35.1033 76.988ZM29.6993 76.988C29.6993 78.36 29.8533 79.3867 30.1613 80.068C30.4786 80.7493 31.0153 81.09 31.7713 81.09C32.5179 81.09 33.0499 80.754 33.3673 80.082C33.6939 79.4007 33.8573 78.3693 33.8573 76.988C33.8573 75.6253 33.6939 74.6033 33.3673 73.922C33.0499 73.2407 32.5179 72.9 31.7713 72.9C31.0153 72.9 30.4786 73.2407 30.1613 73.922C29.8533 74.6033 29.6993 75.6253 29.6993 76.988ZM43.115 76.988C43.115 78.0613 43.003 78.9853 42.779 79.76C42.555 80.5253 42.2003 81.1133 41.715 81.524C41.2296 81.9347 40.5856 82.14 39.783 82.14C38.6536 82.14 37.8183 81.6873 37.277 80.782C36.745 79.8673 36.479 78.6027 36.479 76.988C36.479 75.9053 36.5863 74.9813 36.801 74.216C37.025 73.4507 37.3796 72.8673 37.865 72.466C38.3503 72.0553 38.9896 71.85 39.783 71.85C40.903 71.85 41.7383 72.3027 42.289 73.208C42.8396 74.104 43.115 75.364 43.115 76.988ZM37.711 76.988C37.711 78.36 37.865 79.3867 38.173 80.068C38.4903 80.7493 39.027 81.09 39.783 81.09C40.5296 81.09 41.0616 80.754 41.379 80.082C41.7056 79.4007 41.869 78.3693 41.869 76.988C41.869 75.6253 41.7056 74.6033 41.379 73.922C41.0616 73.2407 40.5296 72.9 39.783 72.9C39.027 72.9 38.4903 73.2407 38.173 73.922C37.865 74.6033 37.711 75.6253 37.711 76.988Z" fill="white" fill-opacity="0.69"/>
<path d="M4.97 115.5H3.766V108.514C3.766 108.113 3.77067 107.791 3.78 107.548C3.78933 107.305 3.80333 107.053 3.822 106.792C3.67267 106.941 3.53733 107.067 3.416 107.17C3.29467 107.273 3.14067 107.403 2.954 107.562L1.89 108.43L1.246 107.604L3.948 105.504H4.97V115.5ZM14.9137 107.842C14.9137 108.514 14.7271 109.051 14.3537 109.452C13.9804 109.844 13.4764 110.105 12.8417 110.236V110.292C13.6444 110.385 14.2417 110.637 14.6337 111.048C15.0257 111.459 15.2217 111.995 15.2217 112.658C15.2217 113.237 15.0864 113.755 14.8157 114.212C14.5451 114.66 14.1251 115.01 13.5557 115.262C12.9957 115.514 12.2724 115.64 11.3857 115.64C10.8631 115.64 10.3777 115.598 9.92972 115.514C9.48172 115.439 9.05239 115.299 8.64172 115.094V113.946C9.06172 114.151 9.51439 114.315 9.99972 114.436C10.4851 114.548 10.9517 114.604 11.3997 114.604C12.2957 114.604 12.9397 114.431 13.3317 114.086C13.7331 113.731 13.9337 113.246 13.9337 112.63C13.9337 112.005 13.6864 111.557 13.1917 111.286C12.7064 111.006 12.0204 110.866 11.1337 110.866H10.1677V109.816H11.1477C11.9691 109.816 12.5897 109.643 13.0097 109.298C13.4391 108.953 13.6537 108.495 13.6537 107.926C13.6537 107.441 13.4904 107.067 13.1637 106.806C12.8371 106.535 12.3937 106.4 11.8337 106.4C11.2924 106.4 10.8304 106.479 10.4477 106.638C10.0651 106.797 9.68705 106.997 9.31372 107.24L8.69772 106.4C9.05239 106.12 9.49105 105.877 10.0137 105.672C10.5457 105.467 11.1477 105.364 11.8197 105.364C12.8651 105.364 13.6397 105.597 14.1437 106.064C14.6571 106.531 14.9137 107.123 14.9137 107.842ZM23.3454 110.488C23.3454 111.561 23.2334 112.485 23.0094 113.26C22.7854 114.025 22.4308 114.613 21.9454 115.024C21.4601 115.435 20.8161 115.64 20.0134 115.64C18.8841 115.64 18.0488 115.187 17.5074 114.282C16.9754 113.367 16.7094 112.103 16.7094 110.488C16.7094 109.405 16.8168 108.481 17.0314 107.716C17.2554 106.951 17.6101 106.367 18.0954 105.966C18.5808 105.555 19.2201 105.35 20.0134 105.35C21.1334 105.35 21.9688 105.803 22.5194 106.708C23.0701 107.604 23.3454 108.864 23.3454 110.488ZM17.9414 110.488C17.9414 111.86 18.0954 112.887 18.4034 113.568C18.7208 114.249 19.2574 114.59 20.0134 114.59C20.7601 114.59 21.2921 114.254 21.6094 113.582C21.9361 112.901 22.0994 111.869 22.0994 110.488C22.0994 109.125 21.9361 108.103 21.6094 107.422C21.2921 106.741 20.7601 106.4 20.0134 106.4C19.2574 106.4 18.7208 106.741 18.4034 107.422C18.0954 108.103 17.9414 109.125 17.9414 110.488ZM25.0432 114.744C25.0432 114.399 25.1272 114.156 25.2952 114.016C25.4632 113.876 25.6638 113.806 25.8972 113.806C26.1398 113.806 26.3452 113.876 26.5132 114.016C26.6905 114.156 26.7792 114.399 26.7792 114.744C26.7792 115.08 26.6905 115.323 26.5132 115.472C26.3452 115.621 26.1398 115.696 25.8972 115.696C25.6638 115.696 25.4632 115.621 25.2952 115.472C25.1272 115.323 25.0432 115.08 25.0432 114.744ZM35.1033 110.488C35.1033 111.561 34.9913 112.485 34.7673 113.26C34.5433 114.025 34.1886 114.613 33.7033 115.024C33.2179 115.435 32.5739 115.64 31.7713 115.64C30.6419 115.64 29.8066 115.187 29.2653 114.282C28.7333 113.367 28.4673 112.103 28.4673 110.488C28.4673 109.405 28.5746 108.481 28.7893 107.716C29.0133 106.951 29.3679 106.367 29.8533 105.966C30.3386 105.555 30.9779 105.35 31.7713 105.35C32.8913 105.35 33.7266 105.803 34.2773 106.708C34.8279 107.604 35.1033 108.864 35.1033 110.488ZM29.6993 110.488C29.6993 111.86 29.8533 112.887 30.1613 113.568C30.4786 114.249 31.0153 114.59 31.7713 114.59C32.5179 114.59 33.0499 114.254 33.3673 113.582C33.6939 112.901 33.8573 111.869 33.8573 110.488C33.8573 109.125 33.6939 108.103 33.3673 107.422C33.0499 106.741 32.5179 106.4 31.7713 106.4C31.0153 106.4 30.4786 106.741 30.1613 107.422C29.8533 108.103 29.6993 109.125 29.6993 110.488ZM43.115 110.488C43.115 111.561 43.003 112.485 42.779 113.26C42.555 114.025 42.2003 114.613 41.715 115.024C41.2296 115.435 40.5856 115.64 39.783 115.64C38.6536 115.64 37.8183 115.187 37.277 114.282C36.745 113.367 36.479 112.103 36.479 110.488C36.479 109.405 36.5863 108.481 36.801 107.716C37.025 106.951 37.3796 106.367 37.865 105.966C38.3503 105.555 38.9896 105.35 39.783 105.35C40.903 105.35 41.7383 105.803 42.289 106.708C42.8396 107.604 43.115 108.864 43.115 110.488ZM37.711 110.488C37.711 111.86 37.865 112.887 38.173 113.568C38.4903 114.249 39.027 114.59 39.783 114.59C40.5296 114.59 41.0616 114.254 41.379 113.582C41.7056 112.901 41.869 111.869 41.869 110.488C41.869 109.125 41.7056 108.103 41.379 107.422C41.0616 106.741 40.5296 106.4 39.783 106.4C39.027 106.4 38.4903 106.741 38.173 107.422C37.865 108.103 37.711 109.125 37.711 110.488Z" fill="white" fill-opacity="0.69"/>
<path d="M4.97 149H3.766V142.014C3.766 141.613 3.77067 141.291 3.78 141.048C3.78933 140.805 3.80333 140.553 3.822 140.292C3.67267 140.441 3.53733 140.567 3.416 140.67C3.29467 140.773 3.14067 140.903 2.954 141.062L1.89 141.93L1.246 141.104L3.948 139.004H4.97V149ZM15.2917 149H8.68372V147.978L11.3017 145.332C11.8057 144.828 12.2304 144.38 12.5757 143.988C12.9211 143.596 13.1824 143.213 13.3597 142.84C13.5371 142.457 13.6257 142.042 13.6257 141.594C13.6257 141.043 13.4624 140.628 13.1357 140.348C12.8091 140.059 12.3844 139.914 11.8617 139.914C11.3764 139.914 10.9471 139.998 10.5737 140.166C10.2097 140.334 9.83639 140.567 9.45372 140.866L8.79572 140.04C9.18772 139.713 9.63572 139.438 10.1397 139.214C10.6531 138.981 11.2271 138.864 11.8617 138.864C12.7951 138.864 13.5324 139.102 14.0737 139.578C14.6151 140.045 14.8857 140.693 14.8857 141.524C14.8857 142.047 14.7784 142.537 14.5637 142.994C14.3491 143.451 14.0504 143.904 13.6677 144.352C13.2851 144.791 12.8371 145.262 12.3237 145.766L10.2377 147.824V147.88H15.2917V149ZM19.8734 142.868C20.9001 142.868 21.7168 143.125 22.3234 143.638C22.9301 144.151 23.2334 144.875 23.2334 145.808C23.2334 146.844 22.9021 147.661 22.2394 148.258C21.5861 148.846 20.6714 149.14 19.4954 149.14C18.9821 149.14 18.4968 149.093 18.0394 149C17.5914 148.907 17.2134 148.771 16.9054 148.594V147.432C17.2414 147.637 17.6474 147.801 18.1234 147.922C18.6088 148.034 19.0708 148.09 19.5094 148.09C20.2468 148.09 20.8394 147.917 21.2874 147.572C21.7448 147.217 21.9734 146.671 21.9734 145.934C21.9734 145.281 21.7728 144.781 21.3714 144.436C20.9701 144.081 20.3354 143.904 19.4674 143.904C19.2061 143.904 18.9074 143.927 18.5714 143.974C18.2354 144.021 17.9648 144.067 17.7594 144.114L17.1434 143.722L17.5214 139.004H22.5334V140.124H18.5714L18.3334 143.022C18.4921 142.994 18.7068 142.961 18.9774 142.924C19.2481 142.887 19.5468 142.868 19.8734 142.868ZM25.0432 148.244C25.0432 147.899 25.1272 147.656 25.2952 147.516C25.4632 147.376 25.6638 147.306 25.8972 147.306C26.1398 147.306 26.3452 147.376 26.5132 147.516C26.6905 147.656 26.7792 147.899 26.7792 148.244C26.7792 148.58 26.6905 148.823 26.5132 148.972C26.3452 149.121 26.1398 149.196 25.8972 149.196C25.6638 149.196 25.4632 149.121 25.2952 148.972C25.1272 148.823 25.0432 148.58 25.0432 148.244ZM35.1033 143.988C35.1033 145.061 34.9913 145.985 34.7673 146.76C34.5433 147.525 34.1886 148.113 33.7033 148.524C33.2179 148.935 32.5739 149.14 31.7713 149.14C30.6419 149.14 29.8066 148.687 29.2653 147.782C28.7333 146.867 28.4673 145.603 28.4673 143.988C28.4673 142.905 28.5746 141.981 28.7893 141.216C29.0133 140.451 29.3679 139.867 29.8533 139.466C30.3386 139.055 30.9779 138.85 31.7713 138.85C32.8913 138.85 33.7266 139.303 34.2773 140.208C34.8279 141.104 35.1033 142.364 35.1033 143.988ZM29.6993 143.988C29.6993 145.36 29.8533 146.387 30.1613 147.068C30.4786 147.749 31.0153 148.09 31.7713 148.09C32.5179 148.09 33.0499 147.754 33.3673 147.082C33.6939 146.401 33.8573 145.369 33.8573 143.988C33.8573 142.625 33.6939 141.603 33.3673 140.922C33.0499 140.241 32.5179 139.9 31.7713 139.9C31.0153 139.9 30.4786 140.241 30.1613 140.922C29.8533 141.603 29.6993 142.625 29.6993 143.988ZM43.115 143.988C43.115 145.061 43.003 145.985 42.779 146.76C42.555 147.525 42.2003 148.113 41.715 148.524C41.2296 148.935 40.5856 149.14 39.783 149.14C38.6536 149.14 37.8183 148.687 37.277 147.782C36.745 146.867 36.479 145.603 36.479 143.988C36.479 142.905 36.5863 141.981 36.801 141.216C37.025 140.451 37.3796 139.867 37.865 139.466C38.3503 139.055 38.9896 138.85 39.783 138.85C40.903 138.85 41.7383 139.303 42.289 140.208C42.8396 141.104 43.115 142.364 43.115 143.988ZM37.711 143.988C37.711 145.36 37.865 146.387 38.173 147.068C38.4903 147.749 39.027 148.09 39.783 148.09C40.5296 148.09 41.0616 147.754 41.379 147.082C41.7056 146.401 41.869 145.369 41.869 143.988C41.869 142.625 41.7056 141.603 41.379 140.922C41.0616 140.241 40.5296 139.9 39.783 139.9C39.027 139.9 38.4903 140.241 38.173 140.922C37.865 141.603 37.711 142.625 37.711 143.988Z" fill="white" fill-opacity="0.69"/>
<path d="M4.97 182.5H3.766V175.514C3.766 175.113 3.77067 174.791 3.78 174.548C3.78933 174.305 3.80333 174.053 3.822 173.792C3.67267 173.941 3.53733 174.067 3.416 174.17C3.29467 174.273 3.14067 174.403 2.954 174.562L1.89 175.43L1.246 174.604L3.948 172.504H4.97V182.5ZM15.2917 182.5H8.68372V181.478L11.3017 178.832C11.8057 178.328 12.2304 177.88 12.5757 177.488C12.9211 177.096 13.1824 176.713 13.3597 176.34C13.5371 175.957 13.6257 175.542 13.6257 175.094C13.6257 174.543 13.4624 174.128 13.1357 173.848C12.8091 173.559 12.3844 173.414 11.8617 173.414C11.3764 173.414 10.9471 173.498 10.5737 173.666C10.2097 173.834 9.83639 174.067 9.45372 174.366L8.79572 173.54C9.18772 173.213 9.63572 172.938 10.1397 172.714C10.6531 172.481 11.2271 172.364 11.8617 172.364C12.7951 172.364 13.5324 172.602 14.0737 173.078C14.6151 173.545 14.8857 174.193 14.8857 175.024C14.8857 175.547 14.7784 176.037 14.5637 176.494C14.3491 176.951 14.0504 177.404 13.6677 177.852C13.2851 178.291 12.8371 178.762 12.3237 179.266L10.2377 181.324V181.38H15.2917V182.5ZM23.3454 177.488C23.3454 178.561 23.2334 179.485 23.0094 180.26C22.7854 181.025 22.4308 181.613 21.9454 182.024C21.4601 182.435 20.8161 182.64 20.0134 182.64C18.8841 182.64 18.0488 182.187 17.5074 181.282C16.9754 180.367 16.7094 179.103 16.7094 177.488C16.7094 176.405 16.8168 175.481 17.0314 174.716C17.2554 173.951 17.6101 173.367 18.0954 172.966C18.5808 172.555 19.2201 172.35 20.0134 172.35C21.1334 172.35 21.9688 172.803 22.5194 173.708C23.0701 174.604 23.3454 175.864 23.3454 177.488ZM17.9414 177.488C17.9414 178.86 18.0954 179.887 18.4034 180.568C18.7208 181.249 19.2574 181.59 20.0134 181.59C20.7601 181.59 21.2921 181.254 21.6094 180.582C21.9361 179.901 22.0994 178.869 22.0994 177.488C22.0994 176.125 21.9361 175.103 21.6094 174.422C21.2921 173.741 20.7601 173.4 20.0134 173.4C19.2574 173.4 18.7208 173.741 18.4034 174.422C18.0954 175.103 17.9414 176.125 17.9414 177.488ZM25.0432 181.744C25.0432 181.399 25.1272 181.156 25.2952 181.016C25.4632 180.876 25.6638 180.806 25.8972 180.806C26.1398 180.806 26.3452 180.876 26.5132 181.016C26.6905 181.156 26.7792 181.399 26.7792 181.744C26.7792 182.08 26.6905 182.323 26.5132 182.472C26.3452 182.621 26.1398 182.696 25.8972 182.696C25.6638 182.696 25.4632 182.621 25.2952 182.472C25.1272 182.323 25.0432 182.08 25.0432 181.744ZM35.1033 177.488C35.1033 178.561 34.9913 179.485 34.7673 180.26C34.5433 181.025 34.1886 181.613 33.7033 182.024C33.2179 182.435 32.5739 182.64 31.7713 182.64C30.6419 182.64 29.8066 182.187 29.2653 181.282C28.7333 180.367 28.4673 179.103 28.4673 177.488C28.4673 176.405 28.5746 175.481 28.7893 174.716C29.0133 173.951 29.3679 173.367 29.8533 172.966C30.3386 172.555 30.9779 172.35 31.7713 172.35C32.8913 172.35 33.7266 172.803 34.2773 173.708C34.8279 174.604 35.1033 175.864 35.1033 177.488ZM29.6993 177.488C29.6993 178.86 29.8533 179.887 30.1613 180.568C30.4786 181.249 31.0153 181.59 31.7713 181.59C32.5179 181.59 33.0499 181.254 33.3673 180.582C33.6939 179.901 33.8573 178.869 33.8573 177.488C33.8573 176.125 33.6939 175.103 33.3673 174.422C33.0499 173.741 32.5179 173.4 31.7713 173.4C31.0153 173.4 30.4786 173.741 30.1613 174.422C29.8533 175.103 29.6993 176.125 29.6993 177.488ZM43.115 177.488C43.115 178.561 43.003 179.485 42.779 180.26C42.555 181.025 42.2003 181.613 41.715 182.024C41.2296 182.435 40.5856 182.64 39.783 182.64C38.6536 182.64 37.8183 182.187 37.277 181.282C36.745 180.367 36.479 179.103 36.479 177.488C36.479 176.405 36.5863 175.481 36.801 174.716C37.025 173.951 37.3796 173.367 37.865 172.966C38.3503 172.555 38.9896 172.35 39.783 172.35C40.903 172.35 41.7383 172.803 42.289 173.708C42.8396 174.604 43.115 175.864 43.115 177.488ZM37.711 177.488C37.711 178.86 37.865 179.887 38.173 180.568C38.4903 181.249 39.027 181.59 39.783 181.59C40.5296 181.59 41.0616 181.254 41.379 180.582C41.7056 179.901 41.869 178.869 41.869 177.488C41.869 176.125 41.7056 175.103 41.379 174.422C41.0616 173.741 40.5296 173.4 39.783 173.4C39.027 173.4 38.4903 173.741 38.173 174.422C37.865 175.103 37.711 176.125 37.711 177.488Z" fill="white" fill-opacity="0.69"/>
<path d="M4.97 216H3.766V209.014C3.766 208.613 3.77067 208.291 3.78 208.048C3.78933 207.805 3.80333 207.553 3.822 207.292C3.67267 207.441 3.53733 207.567 3.416 207.67C3.29467 207.773 3.14067 207.903 2.954 208.062L1.89 208.93L1.246 208.104L3.948 206.004H4.97V216ZM12.9817 216H11.7777V209.014C11.7777 208.613 11.7824 208.291 11.7917 208.048C11.8011 207.805 11.8151 207.553 11.8337 207.292C11.6844 207.441 11.5491 207.567 11.4277 207.67C11.3064 207.773 11.1524 207.903 10.9657 208.062L9.90172 208.93L9.25772 208.104L11.9597 206.004H12.9817V216ZM19.8734 209.868C20.9001 209.868 21.7168 210.125 22.3234 210.638C22.9301 211.151 23.2334 211.875 23.2334 212.808C23.2334 213.844 22.9021 214.661 22.2394 215.258C21.5861 215.846 20.6714 216.14 19.4954 216.14C18.9821 216.14 18.4968 216.093 18.0394 216C17.5914 215.907 17.2134 215.771 16.9054 215.594V214.432C17.2414 214.637 17.6474 214.801 18.1234 214.922C18.6088 215.034 19.0708 215.09 19.5094 215.09C20.2468 215.09 20.8394 214.917 21.2874 214.572C21.7448 214.217 21.9734 213.671 21.9734 212.934C21.9734 212.281 21.7728 211.781 21.3714 211.436C20.9701 211.081 20.3354 210.904 19.4674 210.904C19.2061 210.904 18.9074 210.927 18.5714 210.974C18.2354 211.021 17.9648 211.067 17.7594 211.114L17.1434 210.722L17.5214 206.004H22.5334V207.124H18.5714L18.3334 210.022C18.4921 209.994 18.7068 209.961 18.9774 209.924C19.2481 209.887 19.5468 209.868 19.8734 209.868ZM25.0432 215.244C25.0432 214.899 25.1272 214.656 25.2952 214.516C25.4632 214.376 25.6638 214.306 25.8972 214.306C26.1398 214.306 26.3452 214.376 26.5132 214.516C26.6905 214.656 26.7792 214.899 26.7792 215.244C26.7792 215.58 26.6905 215.823 26.5132 215.972C26.3452 216.121 26.1398 216.196 25.8972 216.196C25.6638 216.196 25.4632 216.121 25.2952 215.972C25.1272 215.823 25.0432 215.58 25.0432 215.244ZM35.1033 210.988C35.1033 212.061 34.9913 212.985 34.7673 213.76C34.5433 214.525 34.1886 215.113 33.7033 215.524C33.2179 215.935 32.5739 216.14 31.7713 216.14C30.6419 216.14 29.8066 215.687 29.2653 214.782C28.7333 213.867 28.4673 212.603 28.4673 210.988C28.4673 209.905 28.5746 208.981 28.7893 208.216C29.0133 207.451 29.3679 206.867 29.8533 206.466C30.3386 206.055 30.9779 205.85 31.7713 205.85C32.8913 205.85 33.7266 206.303 34.2773 207.208C34.8279 208.104 35.1033 209.364 35.1033 210.988ZM29.6993 210.988C29.6993 212.36 29.8533 213.387 30.1613 214.068C30.4786 214.749 31.0153 215.09 31.7713 215.09C32.5179 215.09 33.0499 214.754 33.3673 214.082C33.6939 213.401 33.8573 212.369 33.8573 210.988C33.8573 209.625 33.6939 208.603 33.3673 207.922C33.0499 207.241 32.5179 206.9 31.7713 206.9C31.0153 206.9 30.4786 207.241 30.1613 207.922C29.8533 208.603 29.6993 209.625 29.6993 210.988ZM43.115 210.988C43.115 212.061 43.003 212.985 42.779 213.76C42.555 214.525 42.2003 215.113 41.715 215.524C41.2296 215.935 40.5856 216.14 39.783 216.14C38.6536 216.14 37.8183 215.687 37.277 214.782C36.745 213.867 36.479 212.603 36.479 210.988C36.479 209.905 36.5863 208.981 36.801 208.216C37.025 207.451 37.3796 206.867 37.865 206.466C38.3503 206.055 38.9896 205.85 39.783 205.85C40.903 205.85 41.7383 206.303 42.289 207.208C42.8396 208.104 43.115 209.364 43.115 210.988ZM37.711 210.988C37.711 212.36 37.865 213.387 38.173 214.068C38.4903 214.749 39.027 215.09 39.783 215.09C40.5296 215.09 41.0616 214.754 41.379 214.082C41.7056 213.401 41.869 212.369 41.869 210.988C41.869 209.625 41.7056 208.603 41.379 207.922C41.0616 207.241 40.5296 206.9 39.783 206.9C39.027 206.9 38.4903 207.241 38.173 207.922C37.865 208.603 37.711 209.625 37.711 210.988Z" fill="white" fill-opacity="0.69"/>
<g clip-path="url(#clip0)">
<path d="M558.99 167.366L548.786 104.612L538.582 199.199L528.378 141.282L518.174 129.545L507.97 63.7156L497.766 198.615L487.561 117.863L477.357 181.938L467.153 20.7133L456.949 130.253L446.745 116.221L436.541 169.051L426.337 60.7046L416.133 107.604L405.929 45.1618L395.725 42.4555L385.521 101.034L375.317 141.363L365.112 139.072L354.908 136.365L344.704 122.45L334.5 146.779L324.296 8.77459L314.092 73.0701L303.888 111.906L293.684 109.117L283.48 173.361L273.276 45.1363L263.072 112.867L252.868 150.744L242.663 170.141L232.459 66.918L222.255 168.373L212.051 114.605L201.847 133.969L191.643 198.596L181.439 92.2086L171.235 92.5048L161.031 48.0213L150.827 167.517L140.623 114.606L130.419 165.852L120.214 169.204L110.01 109.763L99.8063 183.969L89.6022 145.04L79.3982 69.5522L69.1941 85.1994L59 0V199.199H69.1941H79.3982H89.6022H99.8063H110.01H120.214H130.419H140.623H150.827H161.031H171.235H181.439H191.643H201.847H212.051H222.255H232.459H242.663H252.868H263.072H273.276H283.48H293.684H303.888H314.092H324.296H334.5H344.704H354.908H365.112H375.317H385.521H395.725H405.929H416.133H426.337H436.541H446.745H456.949H467.153H477.357H487.561H497.766H507.97H518.174H528.378H538.582H548.786H558.99V167.366Z" fill="url(#paint0_linear)"/>
<path d="M559 168.039L548.796 105.032L538.591 200L528.387 141.85L518.183 130.066L507.979 63.9718L497.774 199.414L487.57 118.337L477.366 182.67L467.161 20.7966L456.957 130.776L446.753 116.689L436.549 169.731L426.344 60.9488L416.14 108.037L405.936 45.3434L395.731 42.6262L385.527 101.441L375.323 141.931L365.119 139.632L354.914 136.913L344.71 122.942L334.506 147.369L324.301 8.80988L314.097 73.364L303.893 112.356L293.689 109.556L283.484 174.058L273.28 45.3178L263.076 113.321L252.871 151.35L242.667 170.826L232.463 67.1872L222.259 169.05L212.054 115.066L201.85 134.508L191.646 199.395L181.441 92.5795L171.237 92.8768L161.033 48.2144L150.829 168.191L140.624 115.067L130.42 166.519L120.216 169.885L110.011 110.204L99.8071 184.709L89.6029 145.623L79.3986 69.832L69.1943 85.542L59 0" stroke="#2BC56B" stroke-width="2" stroke-linecap="round" stroke-linejoin="round"/>
<g clip-path="url(#clip1)">
<path d="M58.944 237.66C58.72 237.66 58.524 237.641 58.356 237.604C58.188 237.576 58.0387 237.534 57.908 237.478V236.414C58.0573 236.451 58.216 236.484 58.384 236.512C58.552 236.54 58.7293 236.554 58.916 236.554C59.1493 236.554 59.3687 236.507 59.574 236.414C59.7887 236.321 59.9613 236.157 60.092 235.924C60.2227 235.691 60.288 235.364 60.288 234.944V225.004H61.548V234.846C61.548 235.807 61.31 236.517 60.834 236.974C60.358 237.431 59.728 237.66 58.944 237.66ZM66.8601 227.37C67.7748 227.37 68.4515 227.571 68.8901 227.972C69.3288 228.373 69.5481 229.013 69.5481 229.89V235H68.6521L68.4141 233.936H68.3581C68.0315 234.347 67.6861 234.65 67.3221 234.846C66.9675 235.042 66.4728 235.14 65.8381 235.14C65.1568 235.14 64.5921 234.963 64.1441 234.608C63.6961 234.244 63.4721 233.679 63.4721 232.914C63.4721 232.167 63.7661 231.593 64.3541 231.192C64.9421 230.781 65.8475 230.557 67.0701 230.52L68.3441 230.478V230.03C68.3441 229.405 68.2088 228.971 67.9381 228.728C67.6675 228.485 67.2848 228.364 66.7901 228.364C66.3981 228.364 66.0248 228.425 65.6701 228.546C65.3155 228.658 64.9841 228.789 64.6761 228.938L64.2981 228.014C64.6248 227.837 65.0121 227.687 65.4601 227.566C65.9081 227.435 66.3748 227.37 66.8601 227.37ZM67.2241 231.374C66.2908 231.411 65.6421 231.561 65.2781 231.822C64.9235 232.083 64.7461 232.452 64.7461 232.928C64.7461 233.348 64.8721 233.656 65.1241 233.852C65.3855 234.048 65.7168 234.146 66.1181 234.146C66.7528 234.146 67.2801 233.973 67.7001 233.628C68.1201 233.273 68.3301 232.732 68.3301 232.004V231.332L67.2241 231.374ZM75.4778 227.356C76.3738 227.356 77.0504 227.575 77.5078 228.014C77.9651 228.443 78.1938 229.143 78.1938 230.114V235H76.9758V230.198C76.9758 228.994 76.4158 228.392 75.2958 228.392C74.4651 228.392 73.8911 228.625 73.5738 229.092C73.2564 229.559 73.0978 230.231 73.0978 231.108V235H71.8658V227.496H72.8598L73.0418 228.518H73.1118C73.3544 228.126 73.6904 227.837 74.1198 227.65C74.5491 227.454 75.0018 227.356 75.4778 227.356Z" fill="white" fill-opacity="0.69"/>
<path d="M127.332 235H126.072V225.004H131.658V226.11H127.332V229.652H131.392V230.758H127.332V235ZM136.062 227.356C136.706 227.356 137.257 227.496 137.714 227.776C138.181 228.056 138.535 228.453 138.778 228.966C139.03 229.47 139.156 230.063 139.156 230.744V231.486H134.018C134.037 232.335 134.251 232.984 134.662 233.432C135.082 233.871 135.665 234.09 136.412 234.09C136.888 234.09 137.308 234.048 137.672 233.964C138.045 233.871 138.428 233.74 138.82 233.572V234.65C138.437 234.818 138.059 234.939 137.686 235.014C137.313 235.098 136.869 235.14 136.356 235.14C135.647 235.14 135.017 234.995 134.466 234.706C133.925 234.417 133.5 233.987 133.192 233.418C132.893 232.839 132.744 232.135 132.744 231.304C132.744 230.483 132.879 229.778 133.15 229.19C133.43 228.602 133.817 228.149 134.312 227.832C134.816 227.515 135.399 227.356 136.062 227.356ZM136.048 228.364C135.46 228.364 134.993 228.555 134.648 228.938C134.312 229.311 134.111 229.834 134.046 230.506H137.868C137.859 229.871 137.709 229.358 137.42 228.966C137.131 228.565 136.673 228.364 136.048 228.364ZM142.298 226.95C142.298 227.267 142.289 227.566 142.27 227.846C142.261 228.117 142.247 228.331 142.228 228.49H142.298C142.513 228.173 142.807 227.907 143.18 227.692C143.554 227.477 144.034 227.37 144.622 227.37C145.556 227.37 146.302 227.697 146.862 228.35C147.432 228.994 147.716 229.96 147.716 231.248C147.716 232.536 147.432 233.507 146.862 234.16C146.293 234.813 145.546 235.14 144.622 235.14C144.034 235.14 143.554 235.033 143.18 234.818C142.807 234.603 142.513 234.347 142.298 234.048H142.2L141.948 235H141.066V224.36H142.298V226.95ZM144.412 228.392C143.619 228.392 143.068 228.621 142.76 229.078C142.452 229.535 142.298 230.245 142.298 231.206V231.262C142.298 232.186 142.448 232.895 142.746 233.39C143.054 233.875 143.619 234.118 144.44 234.118C145.112 234.118 145.612 233.871 145.938 233.376C146.274 232.881 146.442 232.167 146.442 231.234C146.442 229.339 145.766 228.392 144.412 228.392Z" fill="white" fill-opacity="0.69"/>
<path d="M199.196 235L195.906 226.236H195.85C195.878 226.525 195.902 226.917 195.92 227.412C195.939 227.897 195.948 228.406 195.948 228.938V235H194.786V225.004H196.648L199.728 233.194H199.784L202.92 225.004H204.768V235H203.522V228.854C203.522 228.369 203.532 227.888 203.55 227.412C203.578 226.936 203.602 226.549 203.62 226.25H203.564L200.232 235H199.196ZM210.162 227.37C211.076 227.37 211.753 227.571 212.192 227.972C212.63 228.373 212.85 229.013 212.85 229.89V235H211.954L211.716 233.936H211.66C211.333 234.347 210.988 234.65 210.624 234.846C210.269 235.042 209.774 235.14 209.14 235.14C208.458 235.14 207.894 234.963 207.446 234.608C206.998 234.244 206.774 233.679 206.774 232.914C206.774 232.167 207.068 231.593 207.656 231.192C208.244 230.781 209.149 230.557 210.372 230.52L211.646 230.478V230.03C211.646 229.405 211.51 228.971 211.24 228.728C210.969 228.485 210.586 228.364 210.092 228.364C209.7 228.364 209.326 228.425 208.972 228.546C208.617 228.658 208.286 228.789 207.978 228.938L207.6 228.014C207.926 227.837 208.314 227.687 208.762 227.566C209.21 227.435 209.676 227.37 210.162 227.37ZM210.526 231.374C209.592 231.411 208.944 231.561 208.58 231.822C208.225 232.083 208.048 232.452 208.048 232.928C208.048 233.348 208.174 233.656 208.426 233.852C208.687 234.048 209.018 234.146 209.42 234.146C210.054 234.146 210.582 233.973 211.002 233.628C211.422 233.273 211.632 232.732 211.632 232.004V231.332L210.526 231.374ZM218.667 227.356C218.807 227.356 218.957 227.365 219.115 227.384C219.283 227.393 219.428 227.412 219.549 227.44L219.395 228.574C219.274 228.546 219.139 228.523 218.989 228.504C218.849 228.485 218.714 228.476 218.583 228.476C218.201 228.476 217.841 228.583 217.505 228.798C217.169 229.003 216.899 229.297 216.693 229.68C216.497 230.053 216.399 230.492 216.399 230.996V235H215.167V227.496H216.175L216.315 228.868H216.371C216.614 228.457 216.927 228.103 217.309 227.804C217.692 227.505 218.145 227.356 218.667 227.356Z" fill="white" fill-opacity="0.69"/>
<path d="M272.773 235L271.569 231.906H267.607L266.417 235H265.143L269.049 224.962H270.183L274.075 235H272.773ZM270.071 227.762C270.043 227.687 269.996 227.552 269.931 227.356C269.865 227.16 269.8 226.959 269.735 226.754C269.679 226.539 269.632 226.376 269.595 226.264C269.529 226.553 269.455 226.838 269.371 227.118C269.287 227.389 269.217 227.603 269.161 227.762L268.027 230.786H271.191L270.071 227.762ZM278.844 227.356C279.768 227.356 280.51 227.678 281.07 228.322C281.64 228.966 281.924 229.937 281.924 231.234C281.924 232.513 281.64 233.483 281.07 234.146C280.51 234.809 279.764 235.14 278.83 235.14C278.252 235.14 277.771 235.033 277.388 234.818C277.015 234.594 276.721 234.337 276.506 234.048H276.422C276.441 234.207 276.46 234.407 276.478 234.65C276.497 234.893 276.506 235.103 276.506 235.28V238.36H275.274V227.496H276.282L276.45 228.518H276.506C276.73 228.191 277.024 227.916 277.388 227.692C277.752 227.468 278.238 227.356 278.844 227.356ZM278.62 228.392C277.855 228.392 277.314 228.607 276.996 229.036C276.688 229.465 276.525 230.119 276.506 230.996V231.234C276.506 232.158 276.656 232.872 276.954 233.376C277.262 233.871 277.827 234.118 278.648 234.118C279.106 234.118 279.479 233.992 279.768 233.74C280.067 233.488 280.286 233.147 280.426 232.718C280.576 232.279 280.65 231.78 280.65 231.22C280.65 230.361 280.482 229.675 280.146 229.162C279.82 228.649 279.311 228.392 278.62 228.392ZM287.388 227.356C287.528 227.356 287.677 227.365 287.836 227.384C288.004 227.393 288.148 227.412 288.27 227.44L288.116 228.574C287.994 228.546 287.859 228.523 287.71 228.504C287.57 228.485 287.434 228.476 287.304 228.476C286.921 228.476 286.562 228.583 286.226 228.798C285.89 229.003 285.619 229.297 285.414 229.68C285.218 230.053 285.12 230.492 285.12 230.996V235H283.888V227.496H284.896L285.036 228.868H285.092C285.334 228.457 285.647 228.103 286.03 227.804C286.412 227.505 286.865 227.356 287.388 227.356Z" fill="white" fill-opacity="0.69"/>
<path d="M333.801 237.66C333.577 237.66 333.381 237.641 333.213 237.604C333.045 237.576 332.896 237.534 332.765 237.478V236.414C332.915 236.451 333.073 236.484 333.241 236.512C333.409 236.54 333.587 236.554 333.773 236.554C334.007 236.554 334.226 236.507 334.431 236.414C334.646 236.321 334.819 236.157 334.949 235.924C335.08 235.691 335.145 235.364 335.145 234.944V225.004H336.405V234.846C336.405 235.807 336.167 236.517 335.691 236.974C335.215 237.431 334.585 237.66 333.801 237.66ZM345.147 227.496V235H344.139L343.957 234.006H343.901C343.659 234.398 343.323 234.687 342.893 234.874C342.464 235.051 342.007 235.14 341.521 235.14C340.616 235.14 339.935 234.925 339.477 234.496C339.02 234.057 338.791 233.362 338.791 232.41V227.496H340.037V232.326C340.037 233.521 340.593 234.118 341.703 234.118C342.534 234.118 343.108 233.885 343.425 233.418C343.752 232.951 343.915 232.279 343.915 231.402V227.496H345.147ZM351.142 227.356C352.038 227.356 352.714 227.575 353.172 228.014C353.629 228.443 353.858 229.143 353.858 230.114V235H352.64V230.198C352.64 228.994 352.08 228.392 350.96 228.392C350.129 228.392 349.555 228.625 349.238 229.092C348.92 229.559 348.762 230.231 348.762 231.108V235H347.53V227.496H348.524L348.706 228.518H348.776C349.018 228.126 349.354 227.837 349.784 227.65C350.213 227.454 350.666 227.356 351.142 227.356Z" fill="white" fill-opacity="0.69"/>
<path d="M400.516 237.66C400.292 237.66 400.096 237.641 399.928 237.604C399.76 237.576 399.61 237.534 399.48 237.478V236.414C399.629 236.451 399.788 236.484 399.956 236.512C400.124 236.54 400.301 236.554 400.488 236.554C400.721 236.554 400.94 236.507 401.146 236.414C401.36 236.321 401.533 236.157 401.664 235.924C401.794 235.691 401.86 235.364 401.86 234.944V225.004H403.12V234.846C403.12 235.807 402.882 236.517 402.406 236.974C401.93 237.431 401.3 237.66 400.516 237.66ZM411.862 227.496V235H410.854L410.672 234.006H410.616C410.373 234.398 410.037 234.687 409.608 234.874C409.178 235.051 408.721 235.14 408.236 235.14C407.33 235.14 406.649 234.925 406.192 234.496C405.734 234.057 405.506 233.362 405.506 232.41V227.496H406.752V232.326C406.752 233.521 407.307 234.118 408.418 234.118C409.248 234.118 409.822 233.885 410.14 233.418C410.466 232.951 410.63 232.279 410.63 231.402V227.496H411.862ZM415.476 235H414.244V224.36H415.476V235Z" fill="white" fill-opacity="0.69"/>
<path d="M469.916 235L468.712 231.906H464.75L463.56 235H462.286L466.192 224.962H467.326L471.218 235H469.916ZM467.214 227.762C467.186 227.687 467.139 227.552 467.074 227.356C467.008 227.16 466.943 226.959 466.878 226.754C466.822 226.539 466.775 226.376 466.738 226.264C466.672 226.553 466.598 226.838 466.514 227.118C466.43 227.389 466.36 227.603 466.304 227.762L465.17 230.786H468.334L467.214 227.762ZM478.689 227.496V235H477.681L477.499 234.006H477.443C477.2 234.398 476.864 234.687 476.435 234.874C476.006 235.051 475.548 235.14 475.063 235.14C474.158 235.14 473.476 234.925 473.019 234.496C472.562 234.057 472.333 233.362 472.333 232.41V227.496H473.579V232.326C473.579 233.521 474.134 234.118 475.245 234.118C476.076 234.118 476.65 233.885 476.967 233.418C477.294 232.951 477.457 232.279 477.457 231.402V227.496H478.689ZM483.731 227.356C484.226 227.356 484.669 227.449 485.061 227.636C485.463 227.823 485.803 228.107 486.083 228.49H486.153L486.321 227.496H487.301V235.126C487.301 236.199 487.026 237.007 486.475 237.548C485.934 238.089 485.089 238.36 483.941 238.36C482.84 238.36 481.939 238.201 481.239 237.884V236.75C481.977 237.142 482.901 237.338 484.011 237.338C484.655 237.338 485.159 237.147 485.523 236.764C485.897 236.391 486.083 235.877 486.083 235.224V234.93C486.083 234.818 486.088 234.659 486.097 234.454C486.107 234.239 486.116 234.09 486.125 234.006H486.069C485.565 234.762 484.791 235.14 483.745 235.14C482.775 235.14 482.014 234.799 481.463 234.118C480.922 233.437 480.651 232.485 480.651 231.262C480.651 230.067 480.922 229.12 481.463 228.42C482.014 227.711 482.77 227.356 483.731 227.356ZM483.899 228.392C483.274 228.392 482.789 228.644 482.443 229.148C482.098 229.643 481.925 230.352 481.925 231.276C481.925 232.2 482.093 232.909 482.429 233.404C482.775 233.889 483.274 234.132 483.927 234.132C484.683 234.132 485.234 233.931 485.579 233.53C485.925 233.119 486.097 232.461 486.097 231.556V231.262C486.097 230.235 485.92 229.503 485.565 229.064C485.211 228.616 484.655 228.392 483.899 228.392Z" fill="white" fill-opacity="0.69"/>
<path d="M541.028 232.326C541.028 233.213 540.706 233.903 540.062 234.398C539.418 234.893 538.55 235.14 537.458 235.14C536.898 235.14 536.38 235.098 535.904 235.014C535.428 234.93 535.031 234.813 534.714 234.664V233.46C535.05 233.609 535.465 233.745 535.96 233.866C536.464 233.987 536.982 234.048 537.514 234.048C538.261 234.048 538.821 233.903 539.194 233.614C539.577 233.325 539.768 232.933 539.768 232.438C539.768 232.111 539.698 231.836 539.558 231.612C539.418 231.388 539.175 231.183 538.83 230.996C538.494 230.8 538.023 230.595 537.416 230.38C536.567 230.072 535.923 229.694 535.484 229.246C535.055 228.798 534.84 228.187 534.84 227.412C534.84 226.88 534.975 226.427 535.246 226.054C535.517 225.671 535.89 225.377 536.366 225.172C536.851 224.967 537.407 224.864 538.032 224.864C538.583 224.864 539.087 224.915 539.544 225.018C540.001 225.121 540.417 225.256 540.79 225.424L540.398 226.502C540.053 226.353 539.675 226.227 539.264 226.124C538.863 226.021 538.443 225.97 538.004 225.97C537.379 225.97 536.907 226.105 536.59 226.376C536.273 226.637 536.114 226.987 536.114 227.426C536.114 227.762 536.184 228.042 536.324 228.266C536.464 228.49 536.693 228.691 537.01 228.868C537.327 229.045 537.757 229.237 538.298 229.442C538.886 229.657 539.381 229.89 539.782 230.142C540.193 230.385 540.501 230.679 540.706 231.024C540.921 231.369 541.028 231.803 541.028 232.326ZM545.772 227.356C546.416 227.356 546.966 227.496 547.424 227.776C547.89 228.056 548.245 228.453 548.488 228.966C548.74 229.47 548.866 230.063 548.866 230.744V231.486H543.728C543.746 232.335 543.961 232.984 544.372 233.432C544.792 233.871 545.375 234.09 546.122 234.09C546.598 234.09 547.018 234.048 547.382 233.964C547.755 233.871 548.138 233.74 548.53 233.572V234.65C548.147 234.818 547.769 234.939 547.396 235.014C547.022 235.098 546.579 235.14 546.066 235.14C545.356 235.14 544.726 234.995 544.176 234.706C543.634 234.417 543.21 233.987 542.902 233.418C542.603 232.839 542.454 232.135 542.454 231.304C542.454 230.483 542.589 229.778 542.86 229.19C543.14 228.602 543.527 228.149 544.022 227.832C544.526 227.515 545.109 227.356 545.772 227.356ZM545.758 228.364C545.17 228.364 544.703 228.555 544.358 228.938C544.022 229.311 543.821 229.834 543.756 230.506H547.578C547.568 229.871 547.419 229.358 547.13 228.966C546.84 228.565 546.383 228.364 545.758 228.364ZM554.346 227.356C555.27 227.356 556.012 227.678 556.572 228.322C557.141 228.966 557.426 229.937 557.426 231.234C557.426 232.513 557.141 233.483 556.572 234.146C556.012 234.809 555.265 235.14 554.332 235.14C553.753 235.14 553.273 235.033 552.89 234.818C552.517 234.594 552.223 234.337 552.008 234.048H551.924C551.943 234.207 551.961 234.407 551.98 234.65C551.999 234.893 552.008 235.103 552.008 235.28V238.36H550.776V227.496H551.784L551.952 228.518H552.008C552.232 228.191 552.526 227.916 552.89 227.692C553.254 227.468 553.739 227.356 554.346 227.356ZM554.122 228.392C553.357 228.392 552.815 228.607 552.498 229.036C552.19 229.465 552.027 230.119 552.008 230.996V231.234C552.008 232.158 552.157 232.872 552.456 233.376C552.764 233.871 553.329 234.118 554.15 234.118C554.607 234.118 554.981 233.992 555.27 233.74C555.569 233.488 555.788 233.147 555.928 232.718C556.077 232.279 556.152 231.78 556.152 231.22C556.152 230.361 555.984 229.675 555.648 229.162C555.321 228.649 554.813 228.392 554.122 228.392Z" fill="white" fill-opacity="0.69"/>
</g>
</g>
<defs>
<linearGradient id="paint0_linear" x1="315.45" y1="-14.0329" x2="315.45" y2="-14.0329" gradientUnits="userSpaceOnUse">
<stop stop-color="#52FF00" stop-opacity="0.4"/>
<stop offset="0.553825" stop-color="#29FC00" stop-opacity="0.18125"/>
<stop offset="1" stop-color="#2C3E50" stop-opacity="0"/>
</linearGradient>
<clipPath id="clip0">
<rect width="500" height="239" fill="white" transform="translate(59)"/>
</clipPath>
<clipPath id="clip1">
<rect width="500" height="19" fill="white" transform="translate(59 220)"/>
</clipPath>
</defs>
</svg>
