<svg width="160" height="60" viewBox="0 0 160 60" fill="none" xmlns="http://www.w3.org/2000/svg">
<line x1="9.75" y1="60" x2="9.75" stroke="white" stroke-opacity="0.04" stroke-width="1.5"/>
<line x1="30.75" y1="60" x2="30.75" stroke="white" stroke-opacity="0.04" stroke-width="1.5"/>
<line x1="51.75" y1="60" x2="51.75" stroke="white" stroke-opacity="0.04" stroke-width="1.5"/>
<line x1="72.75" y1="60" x2="72.75" stroke="white" stroke-opacity="0.04" stroke-width="1.5"/>
<line x1="93.75" y1="60" x2="93.75" stroke="white" stroke-opacity="0.04" stroke-width="1.5"/>
<line x1="114.75" y1="60" x2="114.75" stroke="white" stroke-opacity="0.04" stroke-width="1.5"/>
<line x1="135.75" y1="60" x2="135.75" stroke="white" stroke-opacity="0.04" stroke-width="1.5"/>
<line x1="156.75" y1="60" x2="156.75" stroke="white" stroke-opacity="0.04" stroke-width="1.5"/>
<path d="M10 27.5L18 21L20 26.5L23.5 30L27.5 35.5L31.5 25.5H37L42 30L45 25.5L51 18L57.5 5L60.5 21L64.5 40.5L68.5 25.5L71.5 18L78 40.5L83 35.5L91 32.5L99 48.5L105 30L112.5 12L119.5 21L127.5 15.5L131.5 32.5L137.5 25.5L145.5 21L151 15L157 18" stroke="white" stroke-opacity="0.69"/>
</svg>
