<svg width="500" height="463" viewBox="0 0 500 463" fill="none" xmlns="http://www.w3.org/2000/svg">
<g clip-path="url(#clip0)">
<path d="M30.3048 36.8997C22.2703 36.9088 14.5674 40.1046 8.88617 45.7858C3.20489 51.4671 0.00913853 59.1699 0 67.2045V416.334C0.00921724 424.368 3.20501 432.071 8.88628 437.752C14.5676 443.434 22.2703 446.629 30.3048 446.638H286.417C294.451 446.629 302.154 443.433 307.835 437.752C313.516 432.071 316.712 424.368 316.721 416.334V67.2045C316.712 59.17 313.516 51.4672 307.835 45.7859C302.154 40.1047 294.451 36.9089 286.417 36.8997H30.3048Z" fill="#3F3D56"/>
<path d="M300.962 58.4243H15.7592V425.114H300.962V58.4243Z" fill="white"/>
<path d="M263.678 124.152H53.0431V137.989H263.678V124.152Z" fill="#2BC56B"/>
<path d="M263.678 161.051H53.0431V174.888H263.678V161.051Z" fill="#2BC56B"/>
<path d="M263.678 197.951H53.0431V211.788H263.678V197.951Z" fill="#2BC56B"/>
<path d="M263.678 234.85H53.0431V248.688H263.678V234.85Z" fill="#2BC56B"/>
<path d="M263.678 271.75H53.0431V285.587H263.678V271.75Z" fill="#2BC56B"/>
<path d="M263.678 308.649H53.0431V322.487H263.678V308.649Z" fill="#2BC56B"/>
<path d="M263.678 345.549H53.0431V359.386H263.678V345.549Z" fill="#2BC56B"/>
<path d="M266.643 35.1735L57.7788 73.3962L106.922 341.936L315.786 303.713L266.643 35.1735Z" fill="#E6E6E6"/>
<path d="M248.147 88.3048L93.892 116.534L95.7464 126.668L250.002 98.4383L248.147 88.3048Z" fill="#2BC56B"/>
<path d="M253.093 115.328L98.8372 143.557L100.692 153.69L254.947 125.461L253.093 115.328Z" fill="#2BC56B"/>
<path d="M258.038 142.35L103.782 170.58L105.637 180.713L259.892 152.484L258.038 142.35Z" fill="#2BC56B"/>
<path d="M262.983 169.373L108.728 197.603L110.582 207.736L264.838 179.507L262.983 169.373Z" fill="#2BC56B"/>
<path d="M267.926 196.396L113.671 224.625L115.526 234.759L269.78 206.53L267.926 196.396Z" fill="#2BC56B"/>
<path d="M272.874 223.419L118.618 251.648L120.473 261.782L274.728 233.553L272.874 223.419Z" fill="#2BC56B"/>
<path d="M277.819 250.442L123.563 278.671L125.418 288.804L279.673 260.575L277.819 250.442Z" fill="#2BC56B"/>
<path d="M414.48 328.935L355.381 339.75L369.287 415.735L428.386 404.92L414.48 328.935Z" fill="#E6E6E6"/>
<path d="M409.247 343.969L365.6 351.957L366.124 354.824L409.772 346.836L409.247 343.969Z" fill="white"/>
<path d="M410.646 351.615L366.999 359.603L367.524 362.47L411.171 354.483L410.646 351.615Z" fill="white"/>
<path d="M412.045 359.261L368.398 367.249L368.923 370.116L412.57 362.129L412.045 359.261Z" fill="white"/>
<path d="M413.445 366.908L369.797 374.895L370.322 377.763L413.969 369.775L413.445 366.908Z" fill="white"/>
<path d="M414.844 374.554L371.197 382.542L371.722 385.409L415.369 377.421L414.844 374.554Z" fill="white"/>
<path d="M416.243 382.2L372.596 390.188L373.121 393.055L416.768 385.068L416.243 382.2Z" fill="white"/>
<path d="M417.643 389.846L373.995 397.834L374.52 400.701L418.167 392.714L417.643 389.846Z" fill="white"/>
<path d="M211.168 19.2185H186.035V14.0734C186.035 10.3409 184.552 6.76128 181.913 4.122C179.274 1.48273 175.694 0 171.962 0H144.759C141.027 3.35495e-06 137.447 1.48273 134.808 4.12201C132.169 6.76128 130.686 10.3409 130.686 14.0734V19.2185H105.553C103.705 19.2185 101.875 19.5825 100.168 20.2898C98.4604 20.997 96.9089 22.0337 95.6021 23.3405C94.2953 24.6474 93.2586 26.1988 92.5514 27.9063C91.8441 29.6137 91.4801 31.4438 91.4801 33.2919V72.2616H225.241V33.2919C225.241 31.4438 224.877 29.6137 224.17 27.9063C223.462 26.1988 222.426 24.6474 221.119 23.3405C219.812 22.0337 218.261 20.997 216.553 20.2898C214.846 19.5825 213.016 19.2185 211.168 19.2185V19.2185Z" fill="#3F3D56"/>
<path d="M149.339 398.448C153.494 395.604 157.765 392.647 162.7 391.354C167.202 390.175 172.371 390.487 175.932 393.783C178.806 396.444 180.02 400.533 177.89 404.033C177.434 404.831 176.813 405.524 176.069 406.065C175.325 406.606 174.475 406.984 173.575 407.173C172.705 407.287 171.821 407.18 171.004 406.861C170.186 406.542 169.463 406.021 168.902 405.347C167.785 404.113 167.117 402.29 167.711 400.664C168.335 398.954 170.003 397.908 171.642 397.324C173.55 396.72 175.515 396.314 177.506 396.113L185.66 394.997L219.036 390.428L256.204 385.34C256.498 385.256 256.747 385.061 256.898 384.796C257.049 384.53 257.089 384.216 257.01 383.921C256.922 383.63 256.726 383.385 256.462 383.235C256.198 383.085 255.886 383.042 255.591 383.116L181.633 393.24C178.958 393.607 176.245 393.869 173.598 394.407C171.514 394.744 169.538 395.565 167.829 396.803C164.286 399.608 164.539 404.569 167.799 407.504C171.1 410.474 175.885 409.963 178.781 406.682C180.245 405.022 181.115 402.92 181.251 400.711C181.388 398.501 180.785 396.309 179.536 394.481C176.374 389.713 170.613 387.882 165.109 388.558C158.743 389.34 153.346 392.918 148.175 396.457C146.957 397.29 148.11 399.289 149.339 398.448V398.448Z" fill="#3F3D56"/>
<path d="M408.847 312.98L409.616 320.668C409.616 320.668 405.003 337.58 414.997 337.58C424.991 337.58 417.303 320.668 417.303 320.668L418.072 314.518L408.847 312.98Z" fill="#A0616A"/>
<path d="M478.672 287.369L475.144 294.242C475.144 294.242 462.09 305.942 470.483 311.367C478.876 316.792 481.601 298.415 481.601 298.415L485.585 293.668L478.672 287.369Z" fill="#A0616A"/>
<path d="M421.147 319.899L431.909 392.93L437.291 445.204C437.291 445.204 441.903 456.735 457.278 446.741L454.972 416.76L453.434 389.855C453.434 389.855 451.897 363.717 450.359 359.105C448.822 354.493 451.128 339.118 451.128 339.118L457.278 313.749L421.147 319.899Z" fill="#2F2E41"/>
<path d="M438.828 443.667L432.678 450.585C432.678 450.585 423.453 447.51 421.147 453.66C418.841 459.81 438.828 461.348 438.828 461.348C438.828 461.348 459.584 462.885 459.584 461.348C459.584 459.81 459.028 448.051 456.231 447.396C453.434 446.741 438.828 443.667 438.828 443.667Z" fill="#2F2E41"/>
<path d="M450.359 316.056L461.122 392.93L466.503 445.204C466.503 445.204 471.115 456.735 486.49 446.741L484.184 416.761L482.646 389.855C482.646 389.855 481.109 363.717 479.571 359.105C478.034 354.493 480.34 339.118 480.34 339.118L478.803 310.674L450.359 316.056Z" fill="#2F2E41"/>
<path d="M468.04 443.667L461.89 450.585C461.89 450.585 452.665 447.51 450.359 453.66C448.053 459.81 468.04 461.348 468.04 461.348C468.04 461.348 488.796 462.885 488.796 461.348C488.796 459.81 488.24 448.051 485.443 447.396C482.646 446.741 468.04 443.667 468.04 443.667Z" fill="#2F2E41"/>
<path d="M427.297 194.594C436.213 194.594 443.44 187.367 443.44 178.451C443.44 169.535 436.213 162.307 427.297 162.307C418.381 162.307 411.153 169.535 411.153 178.451C411.153 187.367 418.381 194.594 427.297 194.594Z" fill="#A0616A"/>
<path d="M439.212 185.754L446.131 197.285L428.45 204.973L426.144 191.135L439.212 185.754Z" fill="#A0616A"/>
<path d="M448.053 196.132C448.053 196.132 431.909 194.595 425.76 204.588L410.586 216.12C409.358 217.054 408.398 218.296 407.804 219.72C407.211 221.145 407.005 222.701 407.208 224.231L420.378 323.743L439.597 322.974L471.115 316.824L480.34 314.518L475.728 273.775C475.728 273.775 470.347 257.631 476.497 246.869L473.422 209.201L451.897 200.744L448.053 196.132Z" fill="#575A89"/>
<path d="M411.922 219.194L410.769 217.272C410.769 217.272 409.232 217.272 409.232 220.347C409.232 223.422 406.541 289.918 406.541 289.918L405.772 315.287L420.378 316.824L425.759 269.162L423.453 237.644L411.922 219.194Z" fill="#575A89"/>
<path d="M462.659 207.663L473.421 209.201C477.615 213.592 481.232 218.5 484.184 223.807C488.796 232.263 502.633 248.406 499.558 260.706C496.484 273.006 487.259 295.3 487.259 295.3L472.653 289.15C472.653 289.15 484.184 262.244 483.415 259.937C482.646 257.631 473.421 243.794 473.421 243.794L462.659 207.663Z" fill="#575A89"/>
<path d="M416.15 169.61C416.15 169.61 403.082 168.841 411.538 160.385C411.538 160.385 418.457 157.31 421.532 158.848C421.532 158.848 426.144 155.773 426.144 157.31C426.144 157.31 442.288 152.698 444.594 168.841C446.9 184.985 443.056 192.672 443.056 192.672L432.294 191.904C432.294 191.904 434.6 178.835 426.144 180.373C426.144 180.373 419.225 182.679 418.457 180.373C417.688 178.066 416.15 169.61 416.15 169.61Z" fill="#2F2E41"/>
<path opacity="0.2" d="M422.3 315.671L429.219 269.547L424.606 241.103L426.144 272.041L421.532 315.671H422.3Z" fill="black"/>
</g>
<defs>
<clipPath id="clip0">
<rect width="500" height="462.031" fill="white"/>
</clipPath>
</defs>
</svg>
