<svg width="219" height="54" viewBox="0 0 219 54" fill="none" xmlns="http://www.w3.org/2000/svg">
<path d="M20.04 43H3.36V14.44H20.04V19.96H10.16V25.44H19.32V30.96H10.16V37.4H20.04V43ZM43.0275 43L41.2675 36.88H31.3875L29.6275 43H22.1875L31.9075 14.32H40.6275L50.4675 43H43.0275ZM38.0675 25.48C37.9342 25 37.7475 24.36 37.5075 23.56C37.2942 22.7333 37.0675 21.8933 36.8275 21.04C36.6142 20.1867 36.4408 19.4667 36.3075 18.88C36.2008 19.4667 36.0275 20.2 35.7875 21.08C35.5742 21.9333 35.3608 22.7733 35.1475 23.6C34.9342 24.4 34.7608 25.0267 34.6275 25.48L32.9475 31.2H39.7475L38.0675 25.48ZM71.5088 34.72C71.5088 36.3467 71.1088 37.8267 70.3088 39.16C69.5088 40.4667 68.3088 41.5067 66.7088 42.28C65.1088 43.0267 63.0954 43.4 60.6688 43.4C58.9888 43.4 57.4821 43.2533 56.1488 42.96C54.8154 42.6667 53.5221 42.2267 52.2688 41.64V35.44C53.7088 36.1067 55.1754 36.6667 56.6688 37.12C58.1888 37.5733 59.6421 37.8 61.0287 37.8C62.3354 37.8 63.2821 37.56 63.8688 37.08C64.4554 36.5733 64.7488 35.9467 64.7488 35.2C64.7488 34.2933 64.2821 33.56 63.3488 33C62.4154 32.4133 61.0954 31.72 59.3888 30.92C58.2688 30.4133 57.1754 29.8133 56.1088 29.12C55.0688 28.4 54.2154 27.5067 53.5488 26.44C52.8821 25.3467 52.5488 23.96 52.5488 22.28C52.5488 19.6133 53.4688 17.5733 55.3088 16.16C57.1754 14.7467 59.6421 14.04 62.7088 14.04C64.3621 14.04 65.8954 14.24 67.3088 14.64C68.7221 15.0133 70.1088 15.48 71.4688 16.04L69.3088 21.36C68.0288 20.8 66.8288 20.3733 65.7088 20.08C64.6154 19.76 63.5488 19.6 62.5088 19.6C61.4154 19.6 60.6021 19.8267 60.0688 20.28C59.5354 20.7333 59.2688 21.3067 59.2688 22C59.2688 22.56 59.4554 23.0533 59.8288 23.48C60.2021 23.88 60.7888 24.2933 61.5888 24.72C62.3888 25.1467 63.4421 25.6667 64.7488 26.28C66.1621 26.92 67.3754 27.6133 68.3888 28.36C69.4021 29.1067 70.1754 29.9867 70.7088 31C71.2421 31.9867 71.5088 33.2267 71.5088 34.72ZM85.8478 25.68L91.3278 14.44H98.6878L89.2478 31.88V43H82.4478V32.08L73.0078 14.44H80.4078L85.8478 25.68Z" fill="white" fill-opacity="0.89"/>
<path d="M115.72 14.44C119.693 14.44 122.613 15.0133 124.48 16.16C126.347 17.3067 127.28 19.1333 127.28 21.64C127.28 23.3733 126.84 24.7867 125.96 25.88C125.107 26.9467 124.067 27.6 122.84 27.84V28.04C123.693 28.2267 124.507 28.56 125.28 29.04C126.053 29.4933 126.68 30.1733 127.16 31.08C127.667 31.9867 127.92 33.1867 127.92 34.68C127.92 37.2933 126.96 39.3333 125.04 40.8C123.147 42.2667 120.547 43 117.24 43H106.36V14.44H115.72ZM116.16 25.6C117.68 25.6 118.747 25.3333 119.36 24.8C119.973 24.24 120.28 23.4933 120.28 22.56C120.28 20.72 118.813 19.8 115.88 19.8H113.16V25.6H116.16ZM113.16 30.8V37.56H116.56C118.16 37.56 119.267 37.24 119.88 36.6C120.52 35.96 120.84 35.12 120.84 34.08C120.84 33.1467 120.52 32.3733 119.88 31.76C119.24 31.12 118.08 30.8 116.4 30.8H113.16ZM150.754 43L148.994 36.88H139.114L137.354 43H129.914L139.634 14.32H148.354L158.194 43H150.754ZM145.794 25.48C145.661 25 145.474 24.36 145.234 23.56C145.021 22.7333 144.794 21.8933 144.554 21.04C144.341 20.1867 144.167 19.4667 144.034 18.88C143.927 19.4667 143.754 20.2 143.514 21.08C143.301 21.9333 143.087 22.7733 142.874 23.6C142.661 24.4 142.487 25.0267 142.354 25.48L140.674 31.2H147.474L145.794 25.48ZM187.755 43H178.955L167.435 22.08H167.275C167.329 23.2267 167.382 24.5067 167.435 25.92C167.515 27.3067 167.582 28.6 167.635 29.8V43H161.555V14.44H170.315L181.795 35.12H181.915C181.862 33.9733 181.809 32.7467 181.755 31.44C181.702 30.1067 181.662 28.8533 181.635 27.68V14.44H187.755V43ZM218.125 43H210.365L203.765 31.48L201.325 33.08V43H194.485V14.44H201.325V27.2C201.672 26.6133 202.045 26.0267 202.445 25.44C202.872 24.8533 203.285 24.28 203.685 23.72L210.645 14.44H218.125L208.605 27.16L218.125 43Z" fill="#2BC56B"/>
</svg>
