<svg width="50" height="54" viewBox="0 0 50 54" fill="none" xmlns="http://www.w3.org/2000/svg">
<path d="M20.04 43H3.36V14.44H20.04V19.96H10.16V25.44H19.32V30.96H10.16V37.4H20.04V43Z" fill="white" fill-opacity="0.89"/>
<path d="M35.72 14.44C39.6933 14.44 42.6133 15.0133 44.48 16.16C46.3467 17.3067 47.28 19.1333 47.28 21.64C47.28 23.3733 46.84 24.7867 45.96 25.88C45.1067 26.9467 44.0667 27.6 42.84 27.84V28.04C43.6933 28.2267 44.5067 28.56 45.28 29.04C46.0533 29.4933 46.68 30.1733 47.16 31.08C47.6667 31.9867 47.92 33.1867 47.92 34.68C47.92 37.2933 46.96 39.3333 45.04 40.8C43.1467 42.2667 40.5467 43 37.24 43H26.36V14.44H35.72ZM36.16 25.6C37.68 25.6 38.7467 25.3333 39.36 24.8C39.9733 24.24 40.28 23.4933 40.28 22.56C40.28 20.72 38.8133 19.8 35.88 19.8H33.16V25.6H36.16ZM33.16 30.8V37.56H36.56C38.16 37.56 39.2667 37.24 39.88 36.6C40.52 35.96 40.84 35.12 40.84 34.08C40.84 33.1467 40.52 32.3733 39.88 31.76C39.24 31.12 38.08 30.8 36.4 30.8H33.16Z" fill="#2BC56B"/>
</svg>
