<svg width="614" height="427" viewBox="0 0 614 427" fill="none" xmlns="http://www.w3.org/2000/svg">
<path d="M122.335 427C189.899 427 244.671 422.842 244.671 417.713C244.671 412.584 189.899 408.426 122.335 408.426C54.7714 408.426 0 412.584 0 417.713C0 422.842 54.7714 427 122.335 427Z" fill="#929292"/>
<path d="M93.511 94.7438C114.801 85.6925 141.318 91.4273 167.215 95.4075C167.456 90.5875 170.377 84.7212 167.317 81.3585C163.6 77.2731 163.942 72.9805 166.179 68.6632C171.899 57.6231 163.704 45.8759 155.429 36.1082C153.564 33.9116 151.206 32.1856 148.549 31.0706C145.891 29.9556 143.007 29.4829 140.133 29.691L124.804 30.7854C121.074 31.0517 117.514 32.4503 114.601 34.7941C111.688 37.1379 109.56 40.315 108.503 43.9004C104.843 48.8761 102.884 53.8381 104.117 58.7742C98.6349 62.5191 97.7138 67.0396 100.177 72.1356C102.266 75.3442 102.244 78.4675 100.082 81.5044C97.2433 85.3762 95.0688 89.6934 93.648 94.2789L93.511 94.7438Z" fill="#2F2E41"/>
<path d="M599.451 369.135H165.533C161.674 369.135 157.974 367.602 155.245 364.875C152.517 362.148 150.984 358.449 150.984 354.592C308.279 336.319 462.617 336.319 614 354.592C614 358.449 612.467 362.148 609.739 364.875C607.01 367.602 603.309 369.135 599.451 369.135Z" fill="#2F2E41"/>
<path d="M614 355.447L150.984 354.592L204.646 264.34L204.902 263.912V65.007C204.902 62.5928 205.378 60.2021 206.302 57.9715C207.226 55.741 208.581 53.7143 210.289 52.0071C211.997 50.3 214.024 48.9458 216.256 48.022C218.488 47.0982 220.879 46.6228 223.295 46.623H539.121C541.537 46.6228 543.929 47.0982 546.16 48.022C548.392 48.9458 550.419 50.3 552.127 52.0071C553.835 53.7143 555.19 55.741 556.114 57.9715C557.038 60.2021 557.514 62.5928 557.514 65.007V265.281L614 355.447Z" fill="#575665"/>
<path d="M222.875 59.4551C221.287 59.4568 219.764 60.0883 218.641 61.211C217.518 62.3336 216.886 63.8557 216.884 65.4433V246.803C216.886 248.39 217.518 249.912 218.641 251.035C219.764 252.158 221.287 252.789 222.875 252.791H542.108C543.697 252.789 545.219 252.157 546.342 251.035C547.466 249.912 548.097 248.39 548.099 246.803V65.4433C548.098 63.8557 547.466 62.3337 546.343 61.211C545.219 60.0884 543.697 59.4569 542.108 59.4551H222.875Z" fill="white"/>
<path d="M224.213 276.744C223.722 276.745 223.242 276.886 222.828 277.151C222.415 277.415 222.086 277.792 221.88 278.238L205.345 314.167C205.165 314.558 205.087 314.988 205.116 315.418C205.146 315.847 205.284 316.262 205.516 316.625C205.748 316.987 206.068 317.285 206.446 317.492C206.823 317.698 207.247 317.807 207.678 317.807H555.398C555.836 317.807 556.266 317.695 556.649 317.482C557.031 317.269 557.352 316.961 557.582 316.589C557.812 316.217 557.943 315.792 557.963 315.355C557.983 314.918 557.89 314.483 557.694 314.092L539.721 278.163C539.509 277.735 539.182 277.376 538.776 277.125C538.37 276.875 537.902 276.743 537.425 276.744H224.213Z" fill="#2F2E41"/>
<path d="M381.208 56.4609C383.335 56.4609 385.059 54.7374 385.059 52.6113C385.059 50.4852 383.335 48.7617 381.208 48.7617C379.081 48.7617 377.357 50.4852 377.357 52.6113C377.357 54.7374 379.081 56.4609 381.208 56.4609Z" fill="white"/>
<path d="M347.03 324.65C346.466 324.651 345.917 324.837 345.469 325.18C345.021 325.524 344.698 326.005 344.551 326.549L340.403 341.948C340.301 342.328 340.287 342.727 340.364 343.113C340.44 343.5 340.605 343.863 340.844 344.176C341.084 344.489 341.393 344.742 341.746 344.916C342.099 345.091 342.488 345.182 342.882 345.181H421.761C422.17 345.181 422.574 345.084 422.937 344.896C423.301 344.709 423.615 344.437 423.852 344.104C424.09 343.77 424.244 343.385 424.302 342.98C424.36 342.575 424.32 342.162 424.186 341.776L418.854 326.377C418.679 325.873 418.352 325.436 417.917 325.126C417.482 324.817 416.961 324.65 416.428 324.65H347.03Z" fill="#2F2E41"/>
<path d="M557.514 260.918V264.339H204.646L204.911 263.912V260.918H557.514Z" fill="#2F2E41"/>
<path d="M547.671 119.766C580.759 119.766 607.581 92.9551 607.581 59.8828C607.581 26.8104 580.759 0 547.671 0C514.584 0 487.762 26.8104 487.762 59.8828C487.762 92.9551 514.584 119.766 547.671 119.766Z" fill="#2BC56B"/>
<path d="M572.491 85.9746H522.852C521.944 85.9737 521.074 85.6129 520.432 84.9714C519.79 84.3298 519.429 83.46 519.428 82.5527V52.6113C519.429 51.7041 519.79 50.8343 520.432 50.1928C521.074 49.5512 521.944 49.1904 522.852 49.1895H572.491C573.399 49.1904 574.269 49.5512 574.911 50.1928C575.553 50.8343 575.914 51.7041 575.915 52.6113V82.5527C575.914 83.46 575.553 84.3298 574.911 84.9714C574.269 85.6129 573.399 85.9737 572.491 85.9746ZM522.852 52.6113V82.5527H572.494L572.491 52.6113L522.852 52.6113Z" fill="white"/>
<path d="M563.077 52.6113H532.266V38.9238C532.266 29.0099 538.745 21.8144 547.671 21.8144C556.598 21.8144 563.077 29.0099 563.077 38.9238L563.077 52.6113ZM535.69 49.1894H559.653V38.9238C559.653 30.8649 554.726 25.2363 547.672 25.2363C540.617 25.2363 535.69 30.865 535.69 38.9238L535.69 49.1894Z" fill="white"/>
<path d="M547.671 70.1484C549.562 70.1484 551.095 68.6164 551.095 66.7265C551.095 64.8367 549.562 63.3047 547.671 63.3047C545.781 63.3047 544.248 64.8367 544.248 66.7265C544.248 68.6164 545.781 70.1484 547.671 70.1484Z" fill="white"/>
<path d="M505.849 191.276H259.134C257.923 191.274 256.762 190.793 255.905 189.937C255.049 189.08 254.567 187.92 254.566 186.709V125.537C254.567 124.326 255.049 123.166 255.905 122.309C256.762 121.453 257.923 120.972 259.134 120.97H505.849C507.061 120.972 508.222 121.453 509.078 122.309C509.935 123.166 510.417 124.326 510.418 125.537V186.709C510.417 187.92 509.935 189.08 509.078 189.937C508.222 190.793 507.061 191.274 505.849 191.276ZM259.134 122.797C258.408 122.798 257.711 123.087 257.197 123.6C256.683 124.114 256.394 124.811 256.393 125.537V186.709C256.394 187.435 256.683 188.132 257.197 188.646C257.711 189.159 258.408 189.448 259.134 189.449H505.849C506.576 189.448 507.273 189.159 507.787 188.646C508.301 188.132 508.59 187.435 508.591 186.709V125.537C508.59 124.811 508.301 124.114 507.787 123.6C507.273 123.087 506.576 122.798 505.849 122.797L259.134 122.797Z" fill="#929292"/>
<path d="M297.469 172.378C307.747 172.378 316.08 164.05 316.08 153.776C316.08 143.502 307.747 135.173 297.469 135.173C287.19 135.173 278.858 143.502 278.858 153.776C278.858 164.05 287.19 172.378 297.469 172.378Z" fill="#929292"/>
<path d="M340.451 141.374C340.043 141.374 339.639 141.453 339.263 141.609C338.886 141.764 338.543 141.993 338.255 142.281C337.966 142.569 337.737 142.911 337.581 143.287C337.425 143.663 337.344 144.067 337.344 144.475C337.344 144.882 337.425 145.286 337.581 145.662C337.737 146.039 337.966 146.381 338.255 146.669C338.543 146.957 338.886 147.185 339.263 147.34C339.639 147.496 340.043 147.576 340.451 147.575H486.679C487.501 147.575 488.29 147.248 488.872 146.667C489.454 146.085 489.781 145.297 489.781 144.475C489.781 143.652 489.454 142.864 488.872 142.282C488.29 141.701 487.501 141.374 486.679 141.374H340.451Z" fill="#929292"/>
<path d="M340.451 159.977C339.628 159.977 338.839 160.303 338.258 160.885C337.676 161.466 337.349 162.255 337.349 163.077C337.349 163.899 337.676 164.688 338.258 165.269C338.839 165.851 339.628 166.177 340.451 166.177H403.373C404.196 166.177 404.985 165.851 405.567 165.269C406.148 164.688 406.475 163.899 406.475 163.077C406.475 162.255 406.148 161.466 405.567 160.885C404.985 160.303 404.196 159.977 403.373 159.977H340.451Z" fill="#929292"/>
<path d="M204.038 161.231L158.431 185.467L157.854 165.27C172.74 162.786 186.902 158.462 199.997 151.421L204.767 139.642C205.287 138.358 206.132 137.232 207.219 136.373C208.305 135.515 209.597 134.953 210.966 134.744C212.336 134.535 213.736 134.686 215.03 135.181C216.323 135.676 217.466 136.499 218.345 137.569C219.632 139.135 220.275 141.131 220.144 143.152C220.014 145.174 219.119 147.071 217.642 148.458L204.038 161.231Z" fill="#FFB8B8"/>
<path d="M92.6019 301.16C92.2692 299.941 92.1985 298.664 92.3946 297.416C92.5907 296.167 93.049 294.973 93.7395 293.914L103.758 278.546C106.128 274.911 109.764 272.285 113.961 271.178C118.158 270.072 122.616 270.563 126.471 272.556C122.261 279.72 122.848 286.004 127.926 291.466C120.043 295.312 112.758 300.277 106.295 306.205C105.116 307.009 103.761 307.52 102.344 307.694C100.927 307.869 99.4882 307.702 98.1485 307.209C96.8088 306.715 95.6064 305.909 94.6416 304.857C93.6768 303.805 92.9775 302.537 92.6019 301.16Z" fill="#2F2E41"/>
<path d="M206.116 281.066C204.6 283.592 202.46 285.685 199.901 287.146C197.342 288.607 194.451 289.386 191.504 289.408L124.948 289.912L122.061 273.178L151.504 264.522L126.679 245.48L153.813 213.742L203.095 259.655C205.976 262.338 207.847 265.929 208.397 269.826C208.947 273.723 208.141 277.691 206.116 281.066Z" fill="#2F2E41"/>
<path d="M114.556 395.512H98.9688C84.9737 299.624 70.7281 203.468 112.824 167.578L162.472 175.657L156.122 217.781L128.411 249.519L114.556 395.512Z" fill="#2F2E41"/>
<path d="M128.258 417.233C127.038 417.566 125.761 417.636 124.511 417.441C123.262 417.245 122.068 416.787 121.008 416.096L104.084 413.823C100.447 411.454 97.8201 407.82 96.7126 403.625C95.6051 399.43 96.096 394.973 98.0902 391.12C105.257 395.328 111.545 394.741 117.008 389.665C120.869 397.457 127.23 396.981 133.304 403.546C134.109 404.725 134.619 406.079 134.794 407.495C134.969 408.912 134.802 410.35 134.309 411.689C133.815 413.028 133.008 414.23 131.956 415.194C130.903 416.159 129.636 416.858 128.258 417.233Z" fill="#2F2E41"/>
<path d="M151.504 103.526L122.638 96.6016C127.432 86.793 127.827 75.8788 125.525 64.287L145.153 63.71C145.768 78.1247 147.629 91.5916 151.504 103.526Z" fill="#FFB8B8"/>
<path d="M159.437 193.032C138.424 207.344 123.577 193.521 112.247 172.195C113.821 159.145 111.272 143.528 106.551 126.559C104.451 119.075 105.235 111.075 108.748 104.14C112.26 97.2052 118.247 91.8387 125.525 89.1L150.349 99.4869C171.427 116.661 175.576 135.263 167.668 154.883L159.437 193.032Z" fill="#2BC56B"/>
<path d="M98.9688 117.952L75.8765 130.07L116.865 154.306L122.569 168.368C122.949 169.307 123.135 170.313 123.114 171.325C123.093 172.338 122.865 173.336 122.446 174.257C122.026 175.179 121.424 176.006 120.674 176.688C119.925 177.369 119.044 177.891 118.086 178.221C116.997 178.596 115.836 178.714 114.694 178.566C113.552 178.418 112.46 178.008 111.503 177.368C110.545 176.727 109.75 175.874 109.178 174.875C108.606 173.875 108.273 172.757 108.205 171.608L107.628 161.808L55.5322 144.624C53.777 144.045 52.1765 143.074 50.8522 141.785C49.5278 140.497 48.5141 138.924 47.8881 137.185C46.9755 134.651 46.929 131.887 47.756 129.324C48.5829 126.761 50.2366 124.544 52.4583 123.02L94.3504 94.2934L98.9688 117.952Z" fill="#FFB8B8"/>
<path d="M122.061 120.261C112.43 116.042 103.672 120.625 92.6184 124.3L90.8865 93.7164C101.863 87.8688 112.328 86.2923 122.061 90.8312L122.061 120.261Z" fill="#2BC56B"/>
<path d="M133.582 78.859C143.76 78.859 152.011 70.6116 152.011 60.4379C152.011 50.2642 143.76 42.0168 133.582 42.0168C123.404 42.0168 115.152 50.2642 115.152 60.4379C115.152 70.6116 123.404 78.859 133.582 78.859Z" fill="#FFB8B8"/>
<path d="M155.629 58.1136C137.383 59.9 123.479 56.9171 114.593 48.424V41.5843H154.081L155.629 58.1136Z" fill="#2F2E41"/>
</svg>
