<svg width="400" height="432" viewBox="0 0 400 432" fill="none" xmlns="http://www.w3.org/2000/svg">
<g clip-path="url(#clip0)">
<path d="M360.065 397.01H330.461V432H360.065V397.01Z" fill="url(#paint0_linear)"/>
<path d="M331.151 430.721H359.381V397.004H331.151V430.721Z" fill="#F5F5F5"/>
<path d="M70.2226 397.01H40.6192V432H70.2226V397.01Z" fill="url(#paint1_linear)"/>
<path d="M69.5385 397.01H41.3091V430.727H69.5385V397.01Z" fill="#F5F5F5"/>
<path d="M391.237 0H8.76308C3.92337 0 0 3.92103 0 8.75787V393.067C0 397.904 3.92337 401.825 8.76308 401.825H391.237C396.077 401.825 400 397.904 400 393.067V8.75787C400 3.92103 396.077 0 391.237 0Z" fill="url(#paint2_linear)"/>
<path d="M389.167 2.06274H11.5171C6.67733 2.06274 2.75397 5.98378 2.75397 10.8206V388.246C2.75397 393.083 6.67733 397.004 11.5171 397.004H389.167C394.007 397.004 397.93 393.083 397.93 388.246V10.8206C397.93 5.98378 394.007 2.06274 389.167 2.06274Z" fill="#454545"/>
<path d="M333.563 65.7075H66.4367V335.428H333.563V65.7075Z" fill="url(#paint3_linear)"/>
<path d="M359.13 134.116L273.29 156.878L284.414 198.776L370.254 176.013L359.13 134.116Z" fill="url(#paint4_linear)"/>
<path d="M358.64 134.959L274.128 157.369L284.899 197.94L369.411 175.529L358.64 134.959Z" fill="#454545"/>
<path d="M356.228 137.019L277.257 157.961L287.321 195.871L366.293 174.929L356.228 137.019Z" fill="#69F0AE"/>
<path d="M323.465 174.187C331.549 172.043 337.154 166.733 335.983 162.325C334.813 157.917 327.311 156.082 319.227 158.226C311.143 160.369 305.539 165.68 306.709 170.088C307.879 174.495 315.381 176.331 323.465 174.187Z" fill="#454545"/>
<path d="M285.046 195.138L270.954 236.134L354.946 264.972L369.038 223.976L285.046 195.138Z" fill="url(#paint5_linear)"/>
<path d="M368.165 224.4L285.472 196.008L271.826 235.705L354.519 264.096L368.165 224.4Z" fill="#454545"/>
<path d="M365.011 224.775L287.74 198.245L274.989 235.339L352.26 261.869L365.011 224.775Z" fill="#69F0AE"/>
<path d="M334.109 234.533C335.591 230.221 330.381 224.523 322.471 221.807C314.561 219.091 306.947 220.386 305.464 224.699C303.982 229.011 309.192 234.709 317.102 237.425C325.012 240.141 332.626 238.846 334.109 234.533Z" fill="#454545"/>
<path d="M377.874 178.405H289.064V221.752H377.874V178.405Z" fill="url(#paint6_linear)"/>
<path d="M377.19 179.094H289.754V221.069H377.19V179.094Z" fill="#454545"/>
<path d="M374.324 180.468H292.62V219.689H374.324V180.468Z" fill="#69F0AE"/>
<path d="M333.127 207.991C341.491 207.991 348.271 204.294 348.271 199.734C348.271 195.174 341.491 191.477 333.127 191.477C324.763 191.477 317.983 195.174 317.983 199.734C317.983 204.294 324.763 207.991 333.127 207.991Z" fill="#454545"/>
<path d="M331.493 68.46H68.5007V331.296H331.493V68.46Z" fill="#B8B8B8"/>
<path d="M200 249.423C227.377 249.423 249.571 227.242 249.571 199.881C249.571 172.52 227.377 150.34 200 150.34C172.623 150.34 150.429 172.52 150.429 199.881C150.429 227.242 172.623 249.423 200 249.423Z" fill="url(#paint7_linear)"/>
<path d="M200 247.36C226.237 247.36 247.507 226.103 247.507 199.881C247.507 173.659 226.237 152.402 200 152.402C173.763 152.402 152.493 173.659 152.493 199.881C152.493 226.103 173.763 247.36 200 247.36Z" fill="#FAFAFA"/>
<path d="M178.316 294.485H163.857V309.62H178.316V294.485Z" fill="url(#paint8_linear)"/>
<path d="M197.594 294.485H183.134V309.62H197.594V294.485Z" fill="url(#paint9_linear)"/>
<path d="M216.866 294.485H202.406V309.62H216.866V294.485Z" fill="url(#paint10_linear)"/>
<path d="M236.143 294.485H221.684V309.62H236.143V294.485Z" fill="url(#paint11_linear)"/>
<path d="M177.968 295.174H164.199V308.936H177.968V295.174Z" fill="#2BC56B"/>
<path opacity="0.7" d="M197.246 295.174H183.476V308.936H197.246V295.174Z" fill="#2BC56B"/>
<path opacity="0.5" d="M216.524 295.174H202.754V308.936H216.524V295.174Z" fill="#2BC56B"/>
<path opacity="0.3" d="M235.801 295.174H222.032V308.936H235.801V295.174Z" fill="#2BC56B"/>
<path d="M222.142 171.277L219.886 169.698L214.359 177.587L216.615 179.165L222.142 171.277Z" fill="#2BC56B"/>
<path d="M228.621 222.007L230.201 219.752L222.308 214.228L220.728 216.483L228.621 222.007Z" fill="#2BC56B"/>
<path d="M177.856 228.482L180.112 230.061L185.638 222.173L183.383 220.594L177.856 228.482Z" fill="#2BC56B"/>
<path d="M171.381 177.753L169.802 180.007L177.695 185.531L179.275 183.276L171.381 177.753Z" fill="#2BC56B"/>
<path opacity="0.2" d="M222.117 171.196L219.861 169.617L214.334 177.505L216.59 179.084L222.117 171.196Z" fill="black"/>
<path opacity="0.2" d="M228.599 221.927L230.178 219.673L222.285 214.149L220.706 216.404L228.599 221.927Z" fill="black"/>
<path opacity="0.2" d="M177.837 228.4L180.093 229.978L185.62 222.09L183.364 220.511L177.837 228.4Z" fill="black"/>
<path opacity="0.2" d="M171.359 177.672L169.78 179.926L177.673 185.45L179.252 183.195L171.359 177.672Z" fill="black"/>
<path d="M200 229.809C216.538 229.809 229.945 216.41 229.945 199.881C229.945 183.352 216.538 169.953 200 169.953C183.462 169.953 170.055 183.352 170.055 199.881C170.055 216.41 183.462 229.809 200 229.809Z" fill="url(#paint12_linear)"/>
<path d="M200 228.094C215.591 228.094 228.229 215.462 228.229 199.881C228.229 184.3 215.591 171.668 200 171.668C184.409 171.668 171.771 184.3 171.771 199.881C171.771 215.462 184.409 228.094 200 228.094Z" fill="#2BC56B"/>
<path opacity="0.2" d="M176.936 203.665C176.931 198.718 178.227 193.856 180.696 189.568C183.164 185.28 186.717 181.716 190.999 179.234C195.281 176.752 200.141 175.439 205.091 175.427C210.041 175.415 214.907 176.704 219.201 179.165C216.32 176.394 212.883 174.267 209.118 172.924C205.353 171.581 201.345 171.052 197.36 171.374C193.375 171.695 189.503 172.859 186.002 174.788C182.501 176.718 179.45 179.368 177.051 182.565C174.652 185.761 172.961 189.431 172.088 193.33C171.215 197.229 171.181 201.269 171.988 205.183C172.795 209.096 174.424 212.794 176.769 216.03C179.114 219.267 182.119 221.968 185.587 223.956C182.851 221.332 180.675 218.181 179.188 214.694C177.701 211.207 176.936 207.455 176.936 203.665Z" fill="#454545"/>
<path d="M79.8644 174.769H57.8328V119.793C57.8344 119.227 58.0606 118.684 58.4619 118.284C58.8632 117.884 59.4067 117.66 59.9735 117.66H77.7296C78.2974 117.66 78.8418 117.885 79.2433 118.286C79.6447 118.687 79.8703 119.232 79.8703 119.799L79.8644 174.769Z" fill="url(#paint13_linear)"/>
<path d="M77.6176 282.792H60.0796C59.4837 282.792 58.9122 282.555 58.4909 282.134C58.0695 281.713 57.8328 281.142 57.8328 280.547V225.683H79.8644V280.535C79.8659 280.831 79.809 281.124 79.6967 281.398C79.5845 281.671 79.4193 281.92 79.2105 282.13C79.0017 282.34 78.7535 282.506 78.4801 282.62C78.2068 282.734 77.9136 282.792 77.6176 282.792Z" fill="url(#paint14_linear)"/>
<path d="M60.3863 118.343H77.305C77.8008 118.343 78.2763 118.54 78.6269 118.89C78.9775 119.241 79.1744 119.716 79.1744 120.212V173.389H58.5346V120.229C58.5322 119.984 58.5783 119.74 58.6701 119.513C58.7619 119.285 58.8976 119.078 59.0696 118.903C59.2415 118.728 59.4463 118.588 59.6722 118.492C59.8981 118.396 60.1408 118.346 60.3863 118.343Z" fill="#FAFAFA"/>
<path d="M58.5169 226.373H79.1567V280.788C79.1567 280.954 79.0909 281.113 78.9737 281.23C78.8564 281.347 78.6974 281.413 78.5316 281.413H59.1479C58.9821 281.413 58.8231 281.347 58.7059 281.23C58.5887 281.113 58.5228 280.954 58.5228 280.788V226.373H58.5169Z" fill="#FAFAFA"/>
</g>
<defs>
<linearGradient id="paint0_linear" x1="345.263" y1="432" x2="345.263" y2="397.01" gradientUnits="userSpaceOnUse">
<stop stop-color="#808080" stop-opacity="0.25"/>
<stop offset="0.54" stop-color="#808080" stop-opacity="0.12"/>
<stop offset="1" stop-color="#808080" stop-opacity="0.1"/>
</linearGradient>
<linearGradient id="paint1_linear" x1="2822.75" y1="397.01" x2="2822.75" y2="23967.5" gradientUnits="userSpaceOnUse">
<stop stop-color="#808080" stop-opacity="0.25"/>
<stop offset="0.54" stop-color="#808080" stop-opacity="0.12"/>
<stop offset="1" stop-color="#808080" stop-opacity="0.1"/>
</linearGradient>
<linearGradient id="paint2_linear" x1="135660" y1="273964" x2="135660" y2="0" gradientUnits="userSpaceOnUse">
<stop stop-color="#808080" stop-opacity="0.25"/>
<stop offset="0.54" stop-color="#808080" stop-opacity="0.12"/>
<stop offset="1" stop-color="#808080" stop-opacity="0.1"/>
</linearGradient>
<linearGradient id="paint3_linear" x1="90662.4" y1="153574" x2="90662.4" y2="30136.8" gradientUnits="userSpaceOnUse">
<stop stop-color="#808080" stop-opacity="0.25"/>
<stop offset="0.54" stop-color="#808080" stop-opacity="0.12"/>
<stop offset="1" stop-color="#808080" stop-opacity="0.1"/>
</linearGradient>
<linearGradient id="paint4_linear" x1="74296.4" y1="-301.923" x2="73479.2" y2="-3383.73" gradientUnits="userSpaceOnUse">
<stop stop-color="#808080" stop-opacity="0.25"/>
<stop offset="0.54" stop-color="#808080" stop-opacity="0.12"/>
<stop offset="1" stop-color="#808080" stop-opacity="0.1"/>
</linearGradient>
<linearGradient id="paint5_linear" x1="17837.2" y1="53427.4" x2="19957.2" y2="47252.7" gradientUnits="userSpaceOnUse">
<stop stop-color="#808080" stop-opacity="0.25"/>
<stop offset="0.54" stop-color="#808080" stop-opacity="0.12"/>
<stop offset="1" stop-color="#808080" stop-opacity="0.1"/>
</linearGradient>
<linearGradient id="paint6_linear" x1="50509.5" y1="16488.3" x2="50509.5" y2="13300.1" gradientUnits="userSpaceOnUse">
<stop stop-color="#808080" stop-opacity="0.25"/>
<stop offset="0.54" stop-color="#808080" stop-opacity="0.12"/>
<stop offset="1" stop-color="#808080" stop-opacity="0.1"/>
</linearGradient>
<linearGradient id="paint7_linear" x1="33774.4" y1="42083.2" x2="33774.4" y2="25425.4" gradientUnits="userSpaceOnUse">
<stop stop-color="#808080" stop-opacity="0.25"/>
<stop offset="0.54" stop-color="#808080" stop-opacity="0.12"/>
<stop offset="1" stop-color="#808080" stop-opacity="0.1"/>
</linearGradient>
<linearGradient id="paint8_linear" x1="4358.76" y1="8245.64" x2="4358.76" y2="7856.83" gradientUnits="userSpaceOnUse">
<stop stop-color="#808080" stop-opacity="0.25"/>
<stop offset="0.54" stop-color="#808080" stop-opacity="0.12"/>
<stop offset="1" stop-color="#808080" stop-opacity="0.1"/>
</linearGradient>
<linearGradient id="paint9_linear" x1="4850.72" y1="8245.64" x2="4850.72" y2="7856.83" gradientUnits="userSpaceOnUse">
<stop stop-color="#808080" stop-opacity="0.25"/>
<stop offset="0.54" stop-color="#808080" stop-opacity="0.12"/>
<stop offset="1" stop-color="#808080" stop-opacity="0.1"/>
</linearGradient>
<linearGradient id="paint10_linear" x1="5342.68" y1="8245.64" x2="5342.68" y2="7856.83" gradientUnits="userSpaceOnUse">
<stop stop-color="#808080" stop-opacity="0.25"/>
<stop offset="0.54" stop-color="#808080" stop-opacity="0.12"/>
<stop offset="1" stop-color="#808080" stop-opacity="0.1"/>
</linearGradient>
<linearGradient id="paint11_linear" x1="5834.63" y1="8245.64" x2="5834.63" y2="7856.83" gradientUnits="userSpaceOnUse">
<stop stop-color="#808080" stop-opacity="0.25"/>
<stop offset="0.54" stop-color="#808080" stop-opacity="0.12"/>
<stop offset="1" stop-color="#808080" stop-opacity="0.1"/>
</linearGradient>
<linearGradient id="paint12_linear" x1="20482.1" y1="23509.3" x2="20482.1" y2="17429.8" gradientUnits="userSpaceOnUse">
<stop stop-color="#808080" stop-opacity="0.25"/>
<stop offset="0.54" stop-color="#808080" stop-opacity="0.12"/>
<stop offset="1" stop-color="#808080" stop-opacity="0.1"/>
</linearGradient>
<linearGradient id="paint13_linear" x1="8379.17" y1="21849.9" x2="8379.17" y2="16316" gradientUnits="userSpaceOnUse">
<stop stop-color="#808080" stop-opacity="0.25"/>
<stop offset="0.54" stop-color="#808080" stop-opacity="0.12"/>
<stop offset="1" stop-color="#808080" stop-opacity="0.1"/>
</linearGradient>
<linearGradient id="paint14_linear" x1="8376.96" y1="32425.4" x2="8376.96" y2="26891.5" gradientUnits="userSpaceOnUse">
<stop stop-color="#808080" stop-opacity="0.25"/>
<stop offset="0.54" stop-color="#808080" stop-opacity="0.12"/>
<stop offset="1" stop-color="#808080" stop-opacity="0.1"/>
</linearGradient>
<clipPath id="clip0">
<rect width="400" height="432" fill="white"/>
</clipPath>
</defs>
</svg>
